<svg version="1.1" id="Layer_1" xmlns="http://www.w3.org/2000/svg" xmlns:xlink="http://www.w3.org/1999/xlink" x="0px" y="0px"
	 width="100%" viewBox="0 0 500 500" xml:space="preserve">
<path fill="#000000" opacity="0.000000" stroke="none" 
	d="
M238.000000,501.000000 
	C158.666687,501.000000 79.833374,501.000000 1.000042,501.000000 
	C1.000028,334.333405 1.000028,167.666779 1.000014,1.000132 
	C167.666565,1.000088 334.333130,1.000088 500.999756,1.000044 
	C500.999847,167.666519 500.999847,334.333038 500.999939,500.999786 
	C413.500000,501.000000 326.000000,501.000000 238.000000,501.000000 
M323.675934,305.852722 
	C323.816193,305.232544 323.956451,304.612366 324.683197,303.603790 
	C328.018585,298.730713 328.237457,293.459961 328.109283,287.609314 
	C327.623230,265.419891 327.871582,243.214386 327.939392,220.076996 
	C327.954315,210.045380 328.005219,200.013519 327.941620,189.982407 
	C327.933075,188.631287 327.348236,187.283844 326.888000,185.206268 
	C326.083740,183.476288 325.387421,181.685715 324.456085,180.027084 
	C320.863373,173.628799 314.460083,170.627441 308.606018,166.908096 
	C299.898041,161.375488 297.846985,160.873611 290.056488,167.135391 
	C284.789734,171.368607 280.628052,176.976608 275.293610,182.235580 
	C274.455414,183.422195 273.525452,184.555206 272.795502,185.805038 
	C270.138611,190.354294 273.032349,199.146912 277.888763,201.143097 
	C280.543701,202.234390 283.297241,203.085800 286.268219,204.693817 
	C288.233368,208.451752 290.198517,212.209686 292.019684,216.893967 
	C292.041443,221.590439 292.063202,226.286896 291.926270,231.914429 
	C291.978363,245.925980 292.030457,259.937531 292.001434,274.715271 
	C289.313995,278.804840 286.626526,282.894379 283.284332,287.263672 
	C271.840912,294.154602 260.397522,301.045532 248.283356,308.263855 
	C244.224319,309.023376 239.433197,311.534393 236.248093,310.203064 
	C227.817719,306.679382 220.082382,301.492828 211.815567,296.304626 
	C199.853745,288.849274 187.937561,281.319031 175.904846,273.979919 
	C171.803009,271.478058 166.298126,272.648956 163.800095,276.870392 
	C159.326096,284.430969 158.677872,292.631714 161.111481,301.757690 
	C163.137238,304.691742 164.559570,308.497009 167.301971,310.396332 
	C175.505341,316.077850 184.225372,321.013336 192.873062,326.192627 
	C192.873062,326.192627 192.858917,326.058655 193.012878,326.558533 
	C193.341385,326.659973 193.669876,326.761414 194.264740,327.507355 
	C196.863998,328.964569 199.463272,330.421783 202.408936,332.461456 
	C205.262924,334.276825 208.116913,336.092194 211.541321,338.245972 
	C212.672913,338.852234 213.804504,339.458496 214.972092,340.013062 
	C214.972092,340.013062 214.946838,340.061066 215.188278,340.462494 
	C215.420273,340.722809 215.705261,340.810181 216.493088,340.860443 
	C216.493088,340.860443 216.889450,341.112701 217.142868,341.713928 
	C218.089447,342.142578 219.036041,342.571259 219.992447,343.009979 
	C219.992447,343.009979 220.004486,343.017365 220.281891,343.631653 
	C221.857956,344.407532 223.434006,345.183411 224.998581,345.998108 
	C224.998581,345.998108 225.037964,345.988983 225.280823,346.604614 
	C226.216873,347.025177 227.152939,347.445740 228.526947,347.901489 
	C228.526947,347.901489 228.935532,348.063049 229.236359,348.699432 
	C232.193329,349.677490 235.150314,350.655579 238.757843,351.700439 
	C239.188889,351.763275 239.619919,351.826080 240.422226,352.525055 
	C247.039429,353.376892 251.943893,349.399841 257.107208,346.401794 
	C266.149994,341.151123 275.033020,335.625305 284.760742,330.081482 
	C285.851135,329.795258 287.080383,329.741760 288.010345,329.186737 
	C297.325592,323.627655 306.645599,318.072021 315.829987,312.301727 
	C317.885712,311.010162 319.417572,308.884796 321.087524,307.112366 
	C321.087524,307.112366 321.066040,307.217834 321.686676,307.565063 
	C322.149872,307.064484 322.613068,306.563904 323.000732,306.004456 
	C323.000732,306.004456 323.065735,306.075134 323.675934,305.852722 
M173.989670,174.991028 
	C173.989670,174.991028 173.952209,174.932281 173.229080,175.026306 
	C161.586761,179.836014 159.197418,186.674210 160.091446,197.476913 
	C160.961960,207.995392 168.832886,218.405289 179.936340,210.177887 
	C181.742554,209.390625 183.656265,208.784592 185.337784,207.787109 
	C197.675262,200.468491 210.071884,193.240570 222.234558,185.639526 
	C230.268234,180.618881 237.995499,175.251648 248.237930,176.895691 
	C249.632523,177.119537 251.574554,177.056168 252.549622,176.256149 
	C258.278107,171.556061 263.893951,166.702988 269.284332,161.622055 
	C270.170135,160.787094 269.751953,158.568726 269.853363,156.349030 
	C269.786102,155.413330 269.847839,154.446564 269.631256,153.546829 
	C267.906769,146.383942 261.007477,144.622925 255.971207,141.239944 
	C251.854340,138.474518 247.990448,134.044754 241.187134,135.066696 
	C240.203857,135.055801 238.987778,134.660492 238.273163,135.093231 
	C230.772079,139.635590 223.351212,144.310425 215.187317,149.043274 
	C205.444382,154.978867 195.701447,160.914459 185.327560,167.176788 
	C181.877579,169.512329 178.427597,171.847870 174.465897,174.130936 
	C174.285233,174.409988 174.104568,174.689026 173.989670,174.991028 
M216.718674,272.096375 
	C223.478760,275.936005 230.049652,280.188049 237.089584,283.417694 
	C240.013504,284.759064 244.441299,285.076233 247.308105,283.834381 
	C253.959518,280.953094 260.324829,277.196472 266.293671,273.056000 
	C268.820099,271.303436 271.349670,267.818726 271.631958,264.903839 
	C272.382172,257.156525 272.110016,249.284088 271.844269,241.475052 
	C271.702881,237.320786 269.462402,234.779938 264.759521,234.985443 
	C260.110718,235.188599 255.445160,234.988510 250.787064,235.003754 
	C245.765579,235.020187 242.261185,238.262787 242.025009,243.056778 
	C241.623993,251.196487 243.650925,254.251831 249.823822,255.001785 
	C251.433914,255.197403 253.008240,255.687637 254.598984,256.042572 
	C254.642776,256.492004 254.686569,256.941467 254.730362,257.390900 
	C251.778168,259.040344 248.836975,260.709869 245.871002,262.334198 
	C242.033798,264.435669 238.360458,264.344666 234.636749,261.826019 
	C231.918381,259.987396 228.944763,258.526093 225.694702,256.163361 
	C225.486618,249.054962 225.130890,241.944992 225.206665,234.839615 
	C225.220291,233.561188 226.774292,231.951675 228.028320,231.101547 
	C231.308807,228.877655 235.101212,227.339981 238.151688,224.865677 
	C241.017258,222.541367 243.235397,223.243896 245.761353,224.889664 
	C247.428680,225.975983 249.034988,227.173019 250.773895,228.128937 
	C254.634354,230.251083 257.402679,229.040817 261.901306,223.432846 
	C266.105469,218.191940 265.953186,216.545593 260.417999,212.747269 
	C256.618835,210.140198 252.454147,208.047729 248.759369,205.311356 
	C244.564499,202.204636 240.627396,202.577591 236.416733,204.998672 
	C230.426926,208.442703 224.654327,212.485519 218.280731,214.967545 
	C213.608154,216.787109 211.194870,219.870667 208.282303,224.265778 
	C208.188965,237.384918 208.084442,250.504028 208.045578,263.623322 
	C208.044113,264.119843 208.678543,264.618256 208.981934,265.789032 
	C210.331223,267.193390 211.680527,268.597748 213.295334,270.074371 
	C213.295334,270.074371 213.570435,270.079742 213.897095,270.639465 
	C214.601456,271.085815 215.305832,271.532196 216.718674,272.096375 
z"/>
<path fill="#262D52" opacity="1.000000" stroke="none" 
	d="
M213.029831,270.002106 
	C211.680527,268.597748 210.331223,267.193390 209.008636,264.976135 
	C209.030426,250.692841 209.025497,237.222473 209.020569,223.752106 
	C211.194870,219.870667 213.608154,216.787109 218.280731,214.967545 
	C224.654327,212.485519 230.426926,208.442703 236.416733,204.998672 
	C240.627396,202.577591 244.564499,202.204636 248.759369,205.311356 
	C252.454147,208.047729 256.618835,210.140198 260.417999,212.747269 
	C265.953186,216.545593 266.105469,218.191940 261.901306,223.432846 
	C257.402679,229.040817 254.634354,230.251083 250.773895,228.128937 
	C249.034988,227.173019 247.428680,225.975983 245.761353,224.889664 
	C243.235397,223.243896 241.017258,222.541367 238.151688,224.865677 
	C235.101212,227.339981 231.308807,228.877655 228.028320,231.101547 
	C226.774292,231.951675 225.220291,233.561188 225.206665,234.839615 
	C225.130890,241.944992 225.486618,249.054962 225.846848,256.945160 
	C225.494415,260.502625 224.931564,263.269257 224.499100,266.056091 
	C223.873108,270.090088 222.512634,271.849854 218.275803,269.122467 
	C217.172897,268.412506 214.812607,269.655884 213.029831,270.002106 
z"/>
<path fill="#1E1941" opacity="1.000000" stroke="none" 
	d="
M213.162582,270.038239 
	C214.812607,269.655884 217.172897,268.412506 218.275803,269.122467 
	C222.512634,271.849854 223.873108,270.090088 224.499100,266.056091 
	C224.931564,263.269257 225.494415,260.502625 226.041962,257.311768 
	C228.944763,258.526093 231.918381,259.987396 234.636749,261.826019 
	C238.360458,264.344666 242.033798,264.435669 245.871002,262.334198 
	C248.836975,260.709869 251.778168,259.040344 254.730362,257.390900 
	C254.686569,256.941467 254.642776,256.492004 254.598984,256.042572 
	C253.008240,255.687637 251.433914,255.197403 249.823822,255.001785 
	C243.650925,254.251831 241.623993,251.196487 242.025009,243.056778 
	C242.261185,238.262787 245.765579,235.020187 250.787064,235.003754 
	C255.445160,234.988510 260.110718,235.188599 264.759521,234.985443 
	C269.462402,234.779938 271.702881,237.320786 271.844269,241.475052 
	C272.110016,249.284088 272.382172,257.156525 271.631958,264.903839 
	C271.349670,267.818726 268.820099,271.303436 266.293671,273.056000 
	C260.324829,277.196472 253.959518,280.953094 247.308105,283.834381 
	C244.441299,285.076233 240.013504,284.759064 237.089584,283.417694 
	C230.049652,280.188049 223.478760,275.936005 216.283813,271.697266 
	C215.089447,270.891998 214.329941,270.485870 213.570435,270.079742 
	C213.570435,270.079742 213.295334,270.074371 213.162582,270.038239 
z"/>
<path fill="#473994" opacity="1.000000" stroke="none" 
	d="
M192.743683,326.240112 
	C184.225372,321.013336 175.505341,316.077850 167.301971,310.396332 
	C164.559570,308.497009 163.137238,304.691742 161.480408,301.559509 
	C165.022980,302.791931 168.370285,305.712891 171.336945,305.367157 
	C179.466919,304.419739 187.417831,302.127167 195.644409,304.777344 
	C196.568710,305.075134 197.843521,304.309967 198.949463,304.014160 
	C202.180222,303.150024 205.407776,302.273895 208.636581,301.402466 
	C208.811951,301.802399 208.987335,302.202332 209.162704,302.602264 
	C210.131943,300.724182 211.101181,298.846130 212.070435,296.968048 
	C220.082382,301.492828 227.817719,306.679382 236.248093,310.203064 
	C239.433197,311.534393 244.224319,309.023376 248.855194,308.296631 
	C251.697144,308.456848 253.021790,308.930298 254.388687,311.540833 
	C256.861450,316.263489 253.124634,318.631073 251.591049,321.986694 
	C244.150772,320.265137 237.394745,320.798553 230.754730,323.822784 
	C229.074051,324.588318 226.916290,324.428070 224.972824,324.471191 
	C219.853226,324.584930 214.730072,324.642853 209.610214,324.576752 
	C208.061569,324.556732 206.330856,324.413025 205.009674,323.711639 
	C201.287704,321.735809 195.841949,322.719177 192.743683,326.240112 
z"/>
<path fill="#5D468D" opacity="1.000000" stroke="none" 
	d="
M252.018295,321.989746 
	C253.124634,318.631073 256.861450,316.263489 254.388687,311.540833 
	C253.021790,308.930298 251.697144,308.456848 249.190567,308.132935 
	C260.397522,301.045532 271.840912,294.154602 283.624390,287.540283 
	C286.102417,298.397003 288.177643,308.990662 290.459595,319.539581 
	C290.738037,320.826874 292.126892,321.873901 292.858704,323.348877 
	C289.755951,325.457794 286.795593,327.250122 283.487061,329.091370 
	C279.090057,331.209198 275.041260,333.278046 270.986938,334.919769 
	C269.874176,330.745392 268.766907,326.998138 267.442596,322.516235 
	C264.657379,325.330139 262.829346,327.176941 260.664368,328.951294 
	C257.557678,326.582428 254.787979,324.286102 252.018295,321.989746 
z"/>
<path fill="#44479D" opacity="1.000000" stroke="none" 
	d="
M211.942993,296.636353 
	C211.101181,298.846130 210.131943,300.724182 209.162704,302.602264 
	C208.987335,302.202332 208.811951,301.802399 208.636581,301.402466 
	C205.407776,302.273895 202.180222,303.150024 198.949463,304.014160 
	C197.843521,304.309967 196.568710,305.075134 195.644409,304.777344 
	C187.417831,302.127167 179.466919,304.419739 171.336945,305.367157 
	C168.370285,305.712891 165.022980,302.791931 161.546722,301.208618 
	C158.677872,292.631714 159.326096,284.430969 163.800095,276.870392 
	C166.298126,272.648956 171.803009,271.478058 175.904846,273.979919 
	C187.937561,281.319031 199.853745,288.849274 211.942993,296.636353 
z"/>
<path fill="#438DC7" opacity="1.000000" stroke="none" 
	d="
M185.958496,166.850037 
	C195.701447,160.914459 205.444382,154.978867 215.951416,148.985641 
	C218.180359,148.647873 219.692688,148.008972 221.095825,148.194763 
	C222.343704,148.359985 224.348953,149.281982 224.502731,150.141434 
	C225.275024,154.457520 225.390320,158.886475 226.039795,163.230423 
	C226.813843,168.407562 227.895981,173.538651 228.713348,178.720917 
	C228.582031,178.752167 228.353912,178.620300 228.025970,178.509186 
	C227.251038,179.023758 226.804016,179.649445 226.295746,180.303345 
	C226.234482,180.331573 226.162903,180.217255 225.934387,180.298340 
	C225.414719,180.547104 225.202545,180.785187 225.037506,181.053497 
	C225.005661,181.013306 225.088562,181.073593 224.878052,181.170380 
	C224.404144,181.435623 224.181839,181.647247 223.724106,182.116409 
	C216.118408,186.767670 208.789230,191.204559 201.363281,195.158264 
	C201.160675,189.340927 200.864975,184.134750 197.486053,179.516602 
	C196.403687,178.037277 196.618484,175.667877 195.949326,173.810349 
	C195.302536,172.014938 194.137146,170.409592 193.453659,168.623535 
	C191.785004,164.263062 188.092575,168.929260 185.958496,166.850037 
z"/>
<path fill="#C97154" opacity="1.000000" stroke="none" 
	d="
M292.084930,230.983368 
	C292.063202,226.286896 292.041443,221.590439 292.404846,216.559311 
	C294.432251,218.981949 296.074493,221.739243 297.682068,224.438354 
	C299.298340,223.523071 300.501770,222.841568 302.828644,221.523865 
	C301.868469,227.969101 304.866364,231.390884 309.230804,233.952271 
	C309.491302,234.105148 309.631165,234.476410 309.807190,234.758545 
	C313.230377,240.245880 316.869568,245.614609 319.981750,251.273193 
	C321.609497,254.232697 323.595734,255.408936 326.855164,255.443848 
	C326.892944,263.593628 326.847076,271.279510 326.487762,279.121857 
	C326.375000,281.542664 326.575714,283.806976 326.791840,286.427734 
	C326.789276,287.497070 326.771301,288.209900 326.453552,289.071838 
	C324.955933,291.678711 323.758179,294.136505 322.560394,296.594299 
	C321.425079,293.874390 321.641693,291.407593 320.920380,289.255127 
	C319.993622,286.489532 318.277344,283.994415 316.964722,281.351288 
	C311.586975,270.522461 306.669373,259.432587 300.683167,248.952469 
	C297.778229,243.866791 293.192963,239.766647 293.231506,232.970062 
	C292.799133,232.085510 292.442047,231.534439 292.084930,230.983368 
z"/>
<path fill="#F6D14D" opacity="1.000000" stroke="none" 
	d="
M275.972076,181.969696 
	C280.628052,176.976608 284.789734,171.368607 290.056488,167.135391 
	C297.846985,160.873611 299.898041,161.375488 308.606018,166.908096 
	C314.460083,170.627441 320.863373,173.628799 324.456085,180.027084 
	C325.387421,181.685715 326.083740,183.476288 326.923767,186.018250 
	C326.711487,189.091370 326.241150,191.354095 326.257446,193.613327 
	C326.304413,200.129013 326.547638,206.643295 326.538422,213.452423 
	C325.561127,215.515182 324.759186,217.283646 323.978638,219.028625 
	C324.000031,219.005157 323.954742,219.045792 323.973022,218.635559 
	C323.483673,216.394943 323.484039,214.154800 322.389435,212.797943 
	C312.087982,200.028015 301.621246,187.402283 296.565369,171.362366 
	C295.497589,167.974792 293.236115,167.360062 290.444611,169.412170 
	C289.136017,170.374130 288.139740,171.760956 286.714905,173.126816 
	C282.942596,176.188843 279.457336,179.079269 275.972076,181.969696 
z"/>
<path fill="#DA8C3F" opacity="1.000000" stroke="none" 
	d="
M326.771484,254.979904 
	C323.595734,255.408936 321.609497,254.232697 319.981750,251.273193 
	C316.869568,245.614609 313.230377,240.245880 309.807190,234.758545 
	C309.631165,234.476410 309.491302,234.105148 309.230804,233.952271 
	C304.866364,231.390884 301.868469,227.969101 302.828644,221.523865 
	C300.501770,222.841568 299.298340,223.523071 297.682068,224.438354 
	C296.074493,221.739243 294.432251,218.981949 292.476807,216.096146 
	C290.198517,212.209686 288.233368,208.451752 286.568848,204.334534 
	C293.567352,205.332458 300.265167,206.689651 307.202148,208.288940 
	C312.945801,212.035950 318.450287,215.540863 323.954742,219.045776 
	C323.954742,219.045792 324.000031,219.005157 324.068604,219.341614 
	C324.795807,220.203018 325.454468,220.727966 326.128906,221.702316 
	C326.353607,233.094452 326.562561,244.037186 326.771484,254.979904 
z"/>
<path fill="#89547B" opacity="1.000000" stroke="none" 
	d="
M293.001129,323.032288 
	C292.126892,321.873901 290.738037,320.826874 290.459595,319.539581 
	C288.177643,308.990662 286.102417,298.397003 283.951721,287.400421 
	C286.626526,282.894379 289.313995,278.804840 292.355011,274.093140 
	C292.906586,271.084869 293.104553,268.698761 293.483063,266.611389 
	C294.620789,270.540009 294.625000,274.889893 296.718689,277.661163 
	C302.390656,285.168823 304.194702,294.050873 307.061523,302.564270 
	C309.079529,308.556854 309.942810,309.255981 316.151398,308.030182 
	C316.779633,307.906128 317.465271,308.072998 317.972412,308.413513 
	C309.547424,313.492188 301.274261,318.262238 293.001129,323.032288 
z"/>
<path fill="#493192" opacity="1.000000" stroke="none" 
	d="
M251.591049,321.986694 
	C254.787979,324.286102 257.557678,326.582428 260.591614,329.338593 
	C260.533722,331.589264 260.566681,333.561798 259.773682,335.111725 
	C259.172546,336.286591 257.412018,337.784424 256.351501,337.653046 
	C251.119492,337.004700 245.962158,335.779022 240.749466,334.936340 
	C238.867874,334.632141 236.903885,334.866486 234.980194,334.788635 
	C226.295364,334.437164 217.604996,334.166412 208.931656,333.625488 
	C206.614639,333.480988 204.350784,332.484406 202.062531,331.878998 
	C199.463272,330.421783 196.863998,328.964569 193.965973,327.019867 
	C193.424393,326.329071 193.154953,326.171173 192.858917,326.058655 
	C192.858917,326.058655 192.873062,326.192627 192.808380,326.216370 
	C195.841949,322.719177 201.287704,321.735809 205.009674,323.711639 
	C206.330856,324.413025 208.061569,324.556732 209.610214,324.576752 
	C214.730072,324.642853 219.853226,324.584930 224.972824,324.471191 
	C226.916290,324.428070 229.074051,324.588318 230.754730,323.822784 
	C237.394745,320.798553 244.150772,320.265137 251.591049,321.986694 
z"/>
<path fill="#3977B5" opacity="1.000000" stroke="none" 
	d="
M228.844650,178.689682 
	C227.895981,173.538651 226.813843,168.407562 226.039795,163.230423 
	C225.390320,158.886475 225.275024,154.457520 224.502731,150.141434 
	C224.348953,149.281982 222.343704,148.359985 221.095825,148.194763 
	C219.692688,148.008972 218.180359,148.647873 216.311859,148.938324 
	C223.351212,144.310425 230.772079,139.635590 238.273163,135.093231 
	C238.987778,134.660492 240.203857,135.055801 241.721161,135.450027 
	C246.653824,137.408081 247.484070,139.951172 244.616302,143.776932 
	C243.861618,144.783752 243.284149,146.257324 243.339996,147.484009 
	C243.721466,155.860138 244.293640,164.227585 244.843781,173.244781 
	C242.602768,173.711197 239.795609,174.295456 236.654617,175.013016 
	C233.828720,176.327438 231.336685,177.508560 228.844650,178.689682 
z"/>
<path fill="#336CAB" opacity="1.000000" stroke="none" 
	d="
M236.988464,174.879700 
	C239.795609,174.295456 242.602768,173.711197 244.843781,173.244781 
	C244.293640,164.227585 243.721466,155.860138 243.339996,147.484009 
	C243.284149,146.257324 243.861618,144.783752 244.616302,143.776932 
	C247.484070,139.951172 246.653824,137.408081 242.128998,135.522095 
	C247.990448,134.044754 251.854340,138.474518 255.971207,141.239944 
	C261.007477,144.622925 267.906769,146.383942 269.631256,153.546829 
	C269.847839,154.446564 269.786102,155.413330 269.635162,156.877136 
	C267.096069,159.961197 264.702850,162.455597 262.467896,165.084579 
	C255.741928,172.996399 247.533249,176.950241 236.988464,174.879700 
z"/>
<path fill="#50A4D8" opacity="1.000000" stroke="none" 
	d="
M185.643036,167.013412 
	C188.092575,168.929260 191.785004,164.263062 193.453659,168.623535 
	C194.137146,170.409592 195.302536,172.014938 195.949326,173.810349 
	C196.618484,175.667877 196.403687,178.037277 197.486053,179.516602 
	C200.864975,184.134750 201.160675,189.340927 201.147812,195.339523 
	C200.197296,196.412643 199.365463,196.821335 198.244141,197.301941 
	C197.662781,197.634445 197.370941,197.895020 197.078125,198.116821 
	C197.077148,198.078033 197.147797,198.110123 196.926682,198.182434 
	C196.427750,198.403854 196.196167,198.605911 195.847366,198.961456 
	C195.683914,199.061966 195.309448,199.145874 195.056564,199.218414 
	C194.542969,199.519257 194.282257,199.747559 193.779633,200.220276 
	C190.778900,202.041428 188.020096,203.618195 185.217499,204.826553 
	C184.519089,202.085861 184.205902,199.547485 183.147491,197.371628 
	C179.600708,190.080322 173.945023,183.679764 173.952209,174.932281 
	C173.952209,174.932281 173.989670,174.991028 174.149902,174.872620 
	C174.566895,174.604019 174.789383,174.413757 174.977615,174.183411 
	C178.427597,171.847870 181.877579,169.512329 185.643036,167.013412 
z"/>
<path fill="#4E2989" opacity="1.000000" stroke="none" 
	d="
M202.235733,332.170227 
	C204.350784,332.484406 206.614639,333.480988 208.931656,333.625488 
	C217.604996,334.166412 226.295364,334.437164 234.980194,334.788635 
	C236.903885,334.866486 238.867874,334.632141 240.749466,334.936340 
	C245.962158,335.779022 251.119492,337.004700 256.351501,337.653046 
	C257.412018,337.784424 259.172546,336.286591 259.773682,335.111725 
	C260.566681,333.561798 260.533722,331.589264 260.928589,329.411072 
	C262.829346,327.176941 264.657379,325.330139 267.442596,322.516235 
	C268.766907,326.998138 269.874176,330.745392 270.790192,335.170715 
	C260.416260,341.195496 250.233612,346.542206 240.050964,351.888916 
	C239.619919,351.826080 239.188889,351.763275 238.269394,351.378174 
	C234.832474,350.058319 231.884003,349.060699 228.935532,348.063049 
	C228.935532,348.063049 228.526947,347.901489 228.176849,347.584900 
	C226.897141,346.841858 225.967560,346.415405 225.037964,345.988983 
	C225.037964,345.988983 224.998581,345.998108 224.935547,345.630219 
	C223.249832,344.514008 221.627167,343.765686 220.004486,343.017365 
	C220.004486,343.017365 219.992447,343.009979 219.893478,342.683777 
	C218.826157,341.942596 217.857803,341.527649 216.889450,341.112671 
	C216.889450,341.112701 216.493088,340.860443 216.113770,340.639648 
	C215.506897,340.222656 215.244370,340.103363 214.946838,340.061066 
	C214.946838,340.061066 214.972092,340.013062 214.885223,339.732971 
	C213.522552,338.937744 212.246735,338.422638 210.970917,337.907532 
	C208.116913,336.092194 205.262924,334.276825 202.235733,332.170227 
z"/>
<path fill="#56AFDF" opacity="1.000000" stroke="none" 
	d="
M173.590637,174.979294 
	C173.945023,183.679764 179.600708,190.080322 183.147491,197.371628 
	C184.205902,199.547485 184.519089,202.085861 185.180176,204.820709 
	C185.186661,205.183289 185.179016,205.108856 184.950928,205.199432 
	C184.432999,205.454422 184.196823,205.676010 183.849731,206.168091 
	C183.208908,206.619598 182.732620,206.857788 182.021362,207.176361 
	C181.487167,207.410294 181.233475,207.619125 180.850922,208.115387 
	C180.183029,208.937378 179.689514,209.527237 179.195999,210.117096 
	C168.832886,218.405289 160.961960,207.995392 160.091446,197.476913 
	C159.197418,186.674210 161.586761,179.836014 173.590637,174.979294 
z"/>
<path fill="#E6AA41" opacity="1.000000" stroke="none" 
	d="
M306.963013,208.046860 
	C300.265167,206.689651 293.567352,205.332458 286.437927,204.010330 
	C283.297241,203.085800 280.543701,202.234390 277.888763,201.143097 
	C273.032349,199.146912 270.138611,190.354294 272.795502,185.805038 
	C273.525452,184.555206 274.455414,183.422195 275.632843,182.102631 
	C279.457336,179.079269 282.942596,176.188843 286.712708,173.549469 
	C288.782715,178.479721 289.920929,183.556641 292.498077,187.749023 
	C296.838959,194.810501 302.093048,201.310623 306.963013,208.046860 
z"/>
<path fill="#262D52" opacity="1.000000" stroke="none" 
	d="
M182.256332,207.095978 
	C182.732620,206.857788 183.208908,206.619598 184.106049,206.124405 
	C184.744263,205.614548 184.961639,205.361710 185.179016,205.108856 
	C185.179016,205.108856 185.186661,205.183289 185.223969,205.189117 
	C188.020096,203.618195 190.778900,202.041428 194.040802,200.165817 
	C194.799072,199.626602 195.054260,199.386230 195.309448,199.145874 
	C195.309448,199.145874 195.683914,199.061966 196.090225,198.932373 
	C196.830856,198.682159 197.047943,198.451279 197.147797,198.110123 
	C197.147797,198.110123 197.077148,198.078033 197.367401,198.045349 
	C197.949646,197.751785 198.241638,197.490906 198.533630,197.230026 
	C199.365463,196.821335 200.197296,196.412643 201.244598,195.822693 
	C208.789230,191.204559 216.118408,186.767670 223.965179,182.071487 
	C224.803238,181.663239 225.005173,181.417038 225.088562,181.073593 
	C225.088562,181.073593 225.005661,181.013306 225.274261,180.979156 
	C225.882187,180.815445 226.088867,180.572845 226.162903,180.217255 
	C226.162903,180.217255 226.234482,180.331573 226.572021,180.251465 
	C227.391006,179.654343 227.872467,179.137329 228.353912,178.620300 
	C228.353912,178.620300 228.582031,178.752167 228.713348,178.720917 
	C231.336685,177.508560 233.828720,176.327438 236.654617,175.013031 
	C247.533249,176.950241 255.741928,172.996399 262.467896,165.084579 
	C264.702850,162.455597 267.096069,159.961197 269.676697,157.197495 
	C269.751953,158.568726 270.170135,160.787094 269.284332,161.622055 
	C263.893951,166.702988 258.278107,171.556061 252.549622,176.256149 
	C251.574554,177.056168 249.632523,177.119537 248.237930,176.895691 
	C237.995499,175.251648 230.268234,180.618881 222.234558,185.639526 
	C210.071884,193.240570 197.675262,200.468491 185.337784,207.787109 
	C183.656265,208.784592 181.742554,209.390625 179.566162,210.147491 
	C179.689514,209.527237 180.183029,208.937378 181.110931,208.086121 
	C181.782333,207.581833 182.019333,207.338913 182.256332,207.095978 
z"/>
<path fill="#89547B" opacity="1.000000" stroke="none" 
	d="
M326.855164,255.443848 
	C326.562561,244.037186 326.353607,233.094452 326.350891,221.597748 
	C326.557129,221.043747 327.015045,220.873657 327.221649,220.914597 
	C327.428253,220.955536 327.845306,221.014893 327.845276,221.014893 
	C327.871582,243.214386 327.623230,265.419891 328.109283,287.609314 
	C328.237457,293.459961 328.018585,298.730713 324.080902,303.928955 
	C323.340973,304.861115 323.203339,305.468140 323.065735,306.075134 
	C323.065735,306.075134 323.000732,306.004456 322.713867,305.949829 
	C321.973358,306.336090 321.519714,306.776947 321.066040,307.217834 
	C321.066040,307.217834 321.087524,307.112366 320.791382,307.104523 
	C320.033325,307.106415 319.571411,307.116150 319.136108,306.778168 
	C322.884033,301.110992 327.284180,296.085815 326.753357,288.922760 
	C326.771301,288.209900 326.789276,287.497070 326.859985,285.985504 
	C326.875549,283.112976 326.838379,281.039185 326.801208,278.965363 
	C326.847076,271.279510 326.892944,263.593628 326.855164,255.443848 
z"/>
<path fill="#262D52" opacity="1.000000" stroke="none" 
	d="
M240.236603,352.206970 
	C250.233612,346.542206 260.416260,341.195496 270.795715,335.597839 
	C275.041260,333.278046 279.090057,331.209198 283.514160,329.385498 
	C283.920685,329.825348 283.951843,330.020050 283.982971,330.214752 
	C275.033020,335.625305 266.149994,341.151123 257.107208,346.401794 
	C251.943893,349.399841 247.039429,353.376892 240.236603,352.206970 
z"/>
<path fill="#A39DB0" opacity="1.000000" stroke="none" 
	d="
M284.371857,330.148132 
	C283.951843,330.020050 283.920685,329.825348 283.862366,329.336517 
	C286.795593,327.250122 289.755951,325.457794 292.858704,323.348877 
	C301.274261,318.262238 309.547424,313.492188 317.974670,308.379395 
	C318.128723,308.036621 318.066315,308.004150 318.323181,307.972931 
	C318.721588,307.652100 318.863159,307.362518 319.021667,307.104492 
	C319.038574,307.136078 319.109528,307.125885 319.109528,307.125854 
	C319.571411,307.116150 320.033325,307.106415 320.842896,307.119995 
	C319.417572,308.884796 317.885712,311.010162 315.829987,312.301727 
	C306.645599,318.072021 297.325592,323.627655 288.010345,329.186737 
	C287.080383,329.741760 285.851135,329.795258 284.371857,330.148132 
z"/>
<path fill="#AF6267" opacity="1.000000" stroke="none" 
	d="
M327.892334,220.545944 
	C327.845306,221.014893 327.428253,220.955536 327.176086,220.488754 
	C326.853851,217.734024 326.783813,215.446075 326.713776,213.158127 
	C326.547638,206.643295 326.304413,200.129013 326.257446,193.613327 
	C326.241150,191.354095 326.711487,189.091370 326.994873,186.382462 
	C327.348236,187.283844 327.933075,188.631287 327.941620,189.982407 
	C328.005219,200.013519 327.954315,210.045380 327.892334,220.545944 
z"/>
<path fill="#A39DB0" opacity="1.000000" stroke="none" 
	d="
M293.302551,266.312653 
	C293.104553,268.698761 292.906586,271.084869 292.395569,273.710022 
	C292.030457,259.937531 291.978363,245.925980 292.005615,231.448898 
	C292.442047,231.534439 292.799133,232.085510 293.172791,233.403961 
	C293.227051,244.885101 293.264801,255.598877 293.302551,266.312653 
z"/>
<path fill="#A39DB0" opacity="1.000000" stroke="none" 
	d="
M208.651428,224.008942 
	C209.025497,237.222473 209.030426,250.692841 209.026001,264.639496 
	C208.678543,264.618256 208.044113,264.119843 208.045578,263.623322 
	C208.084442,250.504028 208.188965,237.384918 208.651428,224.008942 
z"/>
<path fill="#262D52" opacity="1.000000" stroke="none" 
	d="
M229.085938,348.381226 
	C231.884003,349.060699 234.832474,350.058319 237.944122,351.344788 
	C235.150314,350.655579 232.193329,349.677490 229.085938,348.381226 
z"/>
<path fill="#262D52" opacity="1.000000" stroke="none" 
	d="
M220.143188,343.324524 
	C221.627167,343.765686 223.249832,344.514008 224.941284,345.610809 
	C223.434006,345.183411 221.857956,344.407532 220.143188,343.324524 
z"/>
<path fill="#262D52" opacity="1.000000" stroke="none" 
	d="
M211.256119,338.076752 
	C212.246735,338.422638 213.522552,338.937744 214.867218,339.758789 
	C213.804504,339.458496 212.672913,338.852234 211.256119,338.076752 
z"/>
<path fill="#262D52" opacity="1.000000" stroke="none" 
	d="
M217.016159,341.413300 
	C217.857803,341.527649 218.826157,341.942596 219.888565,342.678711 
	C219.036041,342.571259 218.089447,342.142578 217.016159,341.413300 
z"/>
<path fill="#262D52" opacity="1.000000" stroke="none" 
	d="
M225.159393,346.296814 
	C225.967560,346.415405 226.897141,346.841858 227.957855,347.567291 
	C227.152939,347.445740 226.216873,347.025177 225.159393,346.296814 
z"/>
<path fill="#262D52" opacity="1.000000" stroke="none" 
	d="
M213.733765,270.359619 
	C214.329941,270.485870 215.089447,270.891998 215.929565,271.638336 
	C215.305832,271.532196 214.601456,271.085815 213.733765,270.359619 
z"/>
<path fill="#A39DB0" opacity="1.000000" stroke="none" 
	d="
M321.376343,307.391449 
	C321.519714,306.776947 321.973358,306.336090 322.751648,305.979248 
	C322.613068,306.563904 322.149872,307.064484 321.376343,307.391449 
z"/>
<path fill="#A39DB0" opacity="1.000000" stroke="none" 
	d="
M323.370850,305.963928 
	C323.203339,305.468140 323.340973,304.861115 323.787659,304.123169 
	C323.956451,304.612366 323.816193,305.232544 323.370850,305.963928 
z"/>
<path fill="#473994" opacity="1.000000" stroke="none" 
	d="
M192.935898,326.308594 
	C193.154953,326.171173 193.424393,326.329071 193.832794,326.697632 
	C193.669876,326.761414 193.341385,326.659973 192.935898,326.308594 
z"/>
<path fill="#262D52" opacity="1.000000" stroke="none" 
	d="
M215.067566,340.261780 
	C215.244370,340.103363 215.506897,340.222656 215.888855,340.571777 
	C215.705261,340.810181 215.420273,340.722809 215.067566,340.261780 
z"/>
<path fill="#56AFDF" opacity="1.000000" stroke="none" 
	d="
M174.721756,174.157181 
	C174.789383,174.413757 174.566895,174.604019 174.117004,174.861145 
	C174.104568,174.689026 174.285233,174.409988 174.721756,174.157181 
z"/>
<path fill="#3977B5" opacity="1.000000" stroke="none" 
	d="
M228.025986,178.509186 
	C227.872467,179.137329 227.391006,179.654343 226.633286,180.223236 
	C226.804016,179.649445 227.251038,179.023758 228.025986,178.509186 
z"/>
<path fill="#3977B5" opacity="1.000000" stroke="none" 
	d="
M224.878052,181.170380 
	C225.005173,181.417038 224.803238,181.663239 224.241714,181.857117 
	C224.181839,181.647247 224.404144,181.435623 224.878052,181.170380 
z"/>
<path fill="#3977B5" opacity="1.000000" stroke="none" 
	d="
M225.934387,180.298340 
	C226.088867,180.572845 225.882187,180.815445 225.306107,181.019348 
	C225.202545,180.785187 225.414719,180.547104 225.934387,180.298340 
z"/>
<path fill="#AF6267" opacity="1.000000" stroke="none" 
	d="
M293.483063,266.611389 
	C293.264801,255.598877 293.227051,244.885101 293.248047,233.737427 
	C293.192963,239.766647 297.778229,243.866791 300.683167,248.952469 
	C306.669373,259.432587 311.586975,270.522461 316.964722,281.351288 
	C318.277344,283.994415 319.993622,286.489532 320.920380,289.255127 
	C321.641693,291.407593 321.425079,293.874390 322.560394,296.594299 
	C323.758179,294.136505 324.955933,291.678711 326.453522,289.071838 
	C327.284180,296.085815 322.884033,301.110992 319.136108,306.778198 
	C319.109528,307.125885 319.038574,307.136078 318.804993,307.190521 
	C318.295898,307.426758 318.127533,307.679810 318.066315,308.004150 
	C318.066315,308.004150 318.128723,308.036621 318.126495,308.070740 
	C317.465271,308.072998 316.779633,307.906128 316.151398,308.030182 
	C309.942810,309.255981 309.079529,308.556854 307.061523,302.564270 
	C304.194702,294.050873 302.390656,285.168823 296.718689,277.661163 
	C294.625000,274.889893 294.620789,270.540009 293.483063,266.611389 
z"/>
<path fill="#AF6267" opacity="1.000000" stroke="none" 
	d="
M326.487732,279.121857 
	C326.838379,281.039185 326.875549,283.112976 326.844543,285.629028 
	C326.575714,283.806976 326.375000,281.542664 326.487732,279.121857 
z"/>
<path fill="#F0BB41" opacity="1.000000" stroke="none" 
	d="
M307.202148,208.288940 
	C302.093048,201.310623 296.838959,194.810501 292.498077,187.749023 
	C289.920929,183.556641 288.782715,178.479721 286.999725,173.377869 
	C288.139740,171.760956 289.136017,170.374130 290.444611,169.412170 
	C293.236115,167.360062 295.497589,167.974792 296.565369,171.362366 
	C301.621246,187.402283 312.087982,200.028015 322.389435,212.797943 
	C323.484039,214.154800 323.483673,216.394943 323.973022,218.635544 
	C318.450287,215.540863 312.945801,212.035950 307.202148,208.288940 
z"/>
<path fill="#F0BB41" opacity="1.000000" stroke="none" 
	d="
M326.538422,213.452423 
	C326.783813,215.446075 326.853851,217.734024 326.969482,220.447815 
	C327.015045,220.873657 326.557129,221.043747 326.335144,221.148315 
	C325.454468,220.727966 324.795807,220.203018 324.047180,219.365082 
	C324.759186,217.283646 325.561127,215.515182 326.538422,213.452423 
z"/>
<path fill="#438DC7" opacity="1.000000" stroke="none" 
	d="
M195.056549,199.218414 
	C195.054260,199.386230 194.799072,199.626602 194.282730,199.921417 
	C194.282257,199.747559 194.542969,199.519257 195.056549,199.218414 
z"/>
<path fill="#438DC7" opacity="1.000000" stroke="none" 
	d="
M196.926682,198.182434 
	C197.047943,198.451279 196.830856,198.682159 196.253677,198.831879 
	C196.196167,198.605911 196.427750,198.403854 196.926682,198.182434 
z"/>
<path fill="#438DC7" opacity="1.000000" stroke="none" 
	d="
M198.244141,197.301941 
	C198.241638,197.490906 197.949646,197.751785 197.368378,198.084137 
	C197.370941,197.895020 197.662781,197.634445 198.244141,197.301941 
z"/>
<path fill="#50A4D8" opacity="1.000000" stroke="none" 
	d="
M182.021362,207.176361 
	C182.019333,207.338913 181.782333,207.581833 181.285309,207.854004 
	C181.233475,207.619125 181.487167,207.410294 182.021362,207.176361 
z"/>
<path fill="#50A4D8" opacity="1.000000" stroke="none" 
	d="
M184.950928,205.199432 
	C184.961639,205.361710 184.744263,205.614548 184.270584,205.911102 
	C184.196823,205.676010 184.432999,205.454422 184.950928,205.199432 
z"/>
<path fill="#89547B" opacity="1.000000" stroke="none" 
	d="
M318.323181,307.972931 
	C318.127533,307.679810 318.295898,307.426758 318.788055,307.158936 
	C318.863159,307.362518 318.721588,307.652100 318.323181,307.972931 
z"/>
</svg>