<svg width="1000" height="1000" viewBox="0 0 1000 1000" fill="none" xmlns="http://www.w3.org/2000/svg">
<path d="M426.059 540.004C423.361 537.196 420.662 534.387 418.017 529.952C418.061 501.386 418.051 474.445 418.041 447.504C422.39 439.741 427.216 433.574 436.561 429.935C449.308 424.971 460.854 416.885 472.833 409.997C481.255 405.155 489.129 404.409 497.519 410.623C504.908 416.095 513.237 420.28 520.836 425.495C531.906 433.091 532.211 436.384 523.802 446.866C514.805 458.082 509.269 460.502 501.548 456.258C498.07 454.346 494.857 451.952 491.523 449.779C486.471 446.488 482.034 445.083 476.303 449.731C470.202 454.68 462.617 457.755 456.056 462.203C453.548 463.903 450.44 467.122 450.413 469.679C450.262 483.89 450.973 498.11 451.694 513.89C450.989 521.005 449.863 526.539 448.998 532.112C447.746 540.18 445.025 543.7 436.551 538.245C434.346 536.825 429.625 539.312 426.059 540.004Z" fill="#262D52"/>
<path d="M426.325 540.076C429.625 539.312 434.346 536.825 436.552 538.245C445.025 543.7 447.746 540.18 448.998 532.112C449.863 526.539 450.989 521.005 452.084 514.624C457.89 517.052 463.837 519.975 469.274 523.652C476.721 528.689 484.068 528.871 491.742 524.668C497.674 521.42 503.556 518.081 509.461 514.782C509.373 513.883 509.286 512.984 509.198 512.085C506.017 511.375 502.868 510.395 499.648 510.004C487.302 508.504 483.248 502.393 484.05 486.114C484.522 476.526 491.531 470.04 501.574 470.008C510.89 469.977 520.221 470.377 529.519 469.971C538.925 469.56 543.406 474.642 543.689 482.95C544.22 498.568 544.764 514.313 543.264 529.808C542.699 535.637 537.64 542.607 532.587 546.112C520.65 554.393 507.919 561.906 494.616 567.669C488.883 570.152 480.027 569.518 474.179 566.835C460.099 560.376 446.958 551.872 432.568 543.395C430.179 541.784 428.66 540.972 427.141 540.159C427.141 540.159 426.591 540.149 426.325 540.076Z" fill="#1E1941"/>
<path d="M385.487 652.48C368.451 642.027 351.011 632.156 334.604 620.793C329.119 616.994 326.275 609.383 322.961 603.119C330.046 605.584 336.741 611.426 342.674 610.734C358.934 608.839 374.836 604.254 391.289 609.555C393.138 610.15 395.687 608.62 397.899 608.028C404.361 606.3 410.816 604.548 417.273 602.805C417.624 603.605 417.975 604.405 418.326 605.205C420.264 601.448 422.202 597.692 424.141 593.936C440.165 602.986 455.636 613.359 472.496 620.406C478.867 623.069 488.449 618.047 497.711 616.593C503.394 616.914 506.044 617.861 508.777 623.082C513.723 632.527 506.249 637.262 503.182 643.973C488.302 640.53 474.79 641.597 461.51 647.646C458.148 649.177 453.833 648.856 449.946 648.942C439.707 649.17 429.46 649.286 419.221 649.154C416.123 649.113 412.662 648.826 410.019 647.423C402.576 643.472 391.684 645.438 385.487 652.48Z" fill="#473994"/>
<path d="M504.037 643.979C506.249 637.262 513.723 632.527 508.778 623.082C506.044 617.861 503.395 616.914 498.381 616.266C520.795 602.091 543.682 588.309 567.249 575.081C572.205 596.794 576.355 617.981 580.919 639.079C581.476 641.654 584.254 643.748 585.718 646.698C579.512 650.916 573.591 654.5 566.974 658.183C558.18 662.418 550.083 666.556 541.974 669.84C539.749 661.491 537.534 653.996 534.885 645.032C529.315 650.66 525.659 654.354 521.329 657.903C515.116 653.165 509.576 648.572 504.037 643.979Z" fill="#5D468D"/>
<path d="M423.886 593.273C422.202 597.692 420.264 601.448 418.325 605.205C417.975 604.405 417.624 603.605 417.273 602.805C410.815 604.548 404.36 606.3 397.899 608.028C395.687 608.62 393.137 610.15 391.289 609.555C374.836 604.254 358.934 608.84 342.674 610.734C336.74 611.426 330.046 605.584 323.093 602.417C317.356 585.263 318.652 568.862 327.6 553.741C332.596 545.298 343.606 542.956 351.81 547.96C375.875 562.638 399.707 577.699 423.886 593.273Z" fill="#44479D"/>
<path d="M371.917 333.7C391.403 321.829 410.889 309.958 431.903 297.971C436.361 297.296 439.385 296.018 442.192 296.39C444.687 296.72 448.698 298.564 449.005 300.283C450.55 308.915 450.781 317.773 452.08 326.461C453.628 336.815 455.792 347.077 457.427 357.442C457.164 357.504 456.708 357.241 456.052 357.018C454.502 358.048 453.608 359.299 452.591 360.607C452.469 360.663 452.326 360.435 451.869 360.597C450.829 361.094 450.405 361.57 450.075 362.107C450.011 362.027 450.177 362.147 449.756 362.341C448.808 362.871 448.364 363.295 447.448 364.233C432.237 373.535 417.578 382.409 402.727 390.317C402.321 378.682 401.73 368.27 394.972 359.033C392.807 356.075 393.237 351.336 391.899 347.621C390.605 344.03 388.274 340.819 386.907 337.247C383.57 328.526 376.185 337.859 371.917 333.7Z" fill="#438DC7"/>
<path d="M584.17 461.967C584.127 452.574 584.083 443.181 584.81 433.119C588.865 437.964 592.149 443.478 595.364 448.877C598.597 447.046 601.004 445.683 605.657 443.048C603.737 455.938 609.733 462.782 618.462 467.905C618.983 468.21 619.263 468.953 619.615 469.517C626.461 480.492 633.739 491.229 639.964 502.546C643.219 508.465 647.192 510.818 653.711 510.888C653.786 527.187 653.694 542.559 652.976 558.244C652.75 563.085 653.152 567.614 653.584 572.855C653.579 574.994 653.543 576.42 652.907 578.144C649.912 583.357 647.517 588.273 645.121 593.189C642.85 587.749 643.284 582.815 641.841 578.51C639.987 572.979 636.555 567.989 633.93 562.703C623.174 541.045 613.339 518.865 601.367 497.905C595.557 487.734 586.386 479.533 586.463 465.94C585.598 464.171 584.884 463.069 584.17 461.967Z" fill="#C97154"/>
<path d="M551.944 363.939C561.256 353.953 569.58 342.737 580.113 334.271C595.694 321.747 599.796 322.751 617.212 333.816C628.92 341.255 641.727 347.258 648.912 360.054C650.775 363.371 652.168 366.953 653.848 372.037C653.423 378.183 652.482 382.708 652.515 387.227C652.609 400.258 653.095 413.287 653.077 426.905C651.122 431.03 649.519 434.567 647.957 438.057C648 438.01 647.91 438.092 647.946 437.271C646.968 432.79 646.968 428.31 644.779 425.596C624.176 400.056 603.243 374.805 593.131 342.725C590.995 335.95 586.472 334.72 580.889 338.824C578.272 340.748 576.28 343.522 573.43 346.254C565.885 352.378 558.915 358.159 551.944 363.939Z" fill="#F6D14D"/>
<path d="M653.543 509.96C647.191 510.818 643.219 508.465 639.964 502.546C633.739 491.229 626.461 480.492 619.614 469.517C619.262 468.953 618.983 468.21 618.462 467.905C609.733 462.782 603.737 455.938 605.657 443.048C601.004 445.683 598.597 447.046 595.364 448.877C592.149 443.478 588.865 437.964 584.954 432.192C580.397 424.419 576.467 416.904 573.138 408.669C587.135 410.665 600.53 413.379 614.404 416.578C625.892 424.072 636.901 431.082 647.909 438.092C647.909 438.092 648 438.01 648.137 438.683C649.592 440.406 650.909 441.456 652.258 443.405C652.707 466.189 653.125 488.074 653.543 509.96Z" fill="#DA8C3F"/>
<path d="M586.002 646.065C584.254 643.748 581.476 641.654 580.919 639.079C576.355 617.981 572.205 596.794 567.903 574.801C573.253 565.789 578.628 557.61 584.71 548.186C585.813 542.17 586.209 537.398 586.966 533.223C589.241 541.08 589.25 549.78 593.437 555.322C604.781 570.338 608.389 588.102 614.123 605.129C618.159 617.114 619.885 618.512 632.303 616.06C633.559 615.812 634.93 616.146 635.945 616.827C619.095 626.984 602.548 636.524 586.002 646.065Z" fill="#89547B"/>
<path d="M503.182 643.973C509.576 648.572 515.115 653.165 521.183 658.677C521.067 663.179 521.133 667.124 519.547 670.223C518.345 672.573 514.824 675.569 512.703 675.306C502.239 674.009 491.924 671.558 481.499 669.873C477.736 669.264 473.808 669.733 469.96 669.577C452.591 668.874 435.21 668.333 417.863 667.251C413.229 666.962 408.702 664.969 404.125 663.758C398.926 660.844 393.728 657.929 387.932 654.04C386.849 652.658 386.31 652.342 385.718 652.117C385.718 652.117 385.746 652.385 385.617 652.433C391.684 645.438 402.575 643.472 410.019 647.423C412.662 648.826 416.123 649.113 419.22 649.154C429.46 649.286 439.706 649.17 449.946 648.942C453.833 648.856 458.148 649.177 461.509 647.646C474.789 641.597 488.301 640.53 503.182 643.973Z" fill="#493192"/>
<path d="M457.689 357.379C455.792 347.077 453.628 336.815 452.079 326.461C450.78 317.773 450.55 308.915 449.005 300.283C448.698 298.564 444.687 296.72 442.191 296.39C439.385 296.018 436.361 297.296 432.624 297.877C446.702 288.621 461.544 279.271 476.546 270.186C477.975 269.321 480.408 270.112 483.442 270.9C493.307 274.816 494.968 279.902 489.232 287.554C487.723 289.568 486.568 292.515 486.68 294.968C487.443 311.72 488.587 328.455 489.687 346.49C485.205 347.422 479.591 348.591 473.309 350.026C467.657 352.655 462.673 355.017 457.689 357.379Z" fill="#3977B5"/>
<path d="M473.977 349.759C479.591 348.591 485.206 347.422 489.688 346.49C488.587 328.455 487.443 311.72 486.68 294.968C486.568 292.515 487.723 289.567 489.233 287.554C494.968 279.902 493.308 274.816 484.258 271.044C495.981 268.089 503.709 276.949 511.943 282.48C522.015 289.246 535.814 292.768 539.263 307.094C539.696 308.893 539.572 310.827 539.27 313.754C534.192 319.922 529.406 324.911 524.936 330.169C511.484 345.993 495.067 353.9 473.977 349.759Z" fill="#336CAB"/>
<path d="M371.286 334.027C376.185 337.859 383.57 328.526 386.907 337.247C388.274 340.819 390.605 344.03 391.899 347.621C393.237 351.336 392.807 356.075 394.972 359.033C401.73 368.269 402.321 378.682 402.296 390.679C400.394 392.825 398.731 393.643 396.488 394.604C395.325 395.269 394.742 395.79 394.156 396.234C394.154 396.156 394.295 396.22 393.853 396.365C392.855 396.808 392.392 397.212 391.695 397.923C391.368 398.124 390.619 398.292 390.113 398.437C389.086 399.039 388.564 399.495 387.559 400.441C381.558 404.083 376.04 407.236 370.435 409.653C369.038 404.172 368.412 399.095 366.295 394.743C359.201 380.161 347.89 367.36 347.904 349.865C347.904 349.865 347.979 349.982 348.3 349.745C349.134 349.208 349.579 348.828 349.955 348.367C356.855 343.696 363.755 339.025 371.286 334.027Z" fill="#50A4D8"/>
<path d="M404.472 664.34C408.702 664.969 413.229 666.962 417.864 667.251C435.21 668.333 452.591 668.874 469.961 669.577C473.808 669.733 477.736 669.264 481.499 669.873C491.925 671.558 502.239 674.009 512.703 675.306C514.824 675.569 518.345 672.573 519.548 670.223C521.134 667.124 521.068 663.179 521.857 658.822C525.659 654.354 529.315 650.66 534.885 645.032C537.534 653.996 539.749 661.491 541.581 670.341C520.833 682.391 500.467 693.084 480.102 703.778C479.24 703.652 478.378 703.527 476.539 702.756C469.665 700.117 463.768 698.121 457.871 696.126C457.871 696.126 457.054 695.803 456.354 695.17C453.794 693.684 451.935 692.831 450.076 691.978C450.076 691.978 449.997 691.996 449.871 691.26C446.5 689.028 443.255 687.531 440.009 686.035C440.009 686.035 439.985 686.02 439.787 685.368C437.653 683.885 435.716 683.055 433.779 682.225C433.779 682.225 432.986 681.721 432.228 681.279C431.014 680.445 430.489 680.207 429.894 680.122C429.894 680.122 429.944 680.026 429.771 679.466C427.045 677.875 424.494 676.845 421.942 675.815C416.234 672.184 410.526 668.554 404.472 664.34Z" fill="#4E2989"/>
<path d="M347.181 349.959C347.89 367.36 359.201 380.161 366.295 394.743C368.412 399.095 369.038 404.172 370.36 409.641C370.373 410.367 370.358 410.218 369.902 410.399C368.866 410.909 368.394 411.352 367.7 412.336C366.418 413.239 365.465 413.716 364.043 414.353C362.974 414.821 362.467 415.238 361.702 416.231C360.366 417.875 359.379 419.054 358.392 420.234C337.666 436.811 321.924 415.991 320.183 394.954C318.395 373.348 323.174 359.672 347.181 349.959Z" fill="#56AFDF"/>
<path d="M613.926 416.094C600.53 413.379 587.135 410.665 572.876 408.021C566.594 406.172 561.087 404.469 555.777 402.286C546.065 398.294 540.277 380.709 545.591 371.61C547.051 369.11 548.911 366.844 551.266 364.205C558.915 358.159 565.885 352.378 573.425 347.099C577.565 356.959 579.842 367.113 584.996 375.498C593.678 389.621 604.186 402.621 613.926 416.094Z" fill="#E6AA41"/>
<path d="M364.513 414.192C365.465 413.716 366.418 413.239 368.212 412.249C369.489 411.229 369.923 410.723 370.358 410.218C370.358 410.218 370.373 410.367 370.448 410.378C376.04 407.236 381.558 404.083 388.082 400.332C389.598 399.253 390.109 398.772 390.619 398.292C390.619 398.292 391.368 398.124 392.18 397.865C393.662 397.364 394.096 396.903 394.296 396.22C394.296 396.22 394.154 396.156 394.735 396.091C395.899 395.504 396.483 394.982 397.067 394.46C398.731 393.643 400.395 392.825 402.489 391.645C417.578 382.409 432.237 373.535 447.93 364.143C449.606 363.326 450.01 362.834 450.177 362.147C450.177 362.147 450.011 362.027 450.549 361.958C451.764 361.631 452.178 361.146 452.326 360.435C452.326 360.435 452.469 360.663 453.144 360.503C454.782 359.309 455.745 358.275 456.708 357.241C456.708 357.241 457.164 357.504 457.427 357.442C462.673 355.017 467.657 352.655 473.309 350.026C495.066 353.9 511.484 345.993 524.936 330.169C529.406 324.911 534.192 319.922 539.353 314.395C539.504 317.137 540.34 321.574 538.569 323.244C527.788 333.406 516.556 343.112 505.099 352.512C503.149 354.112 499.265 354.239 496.476 353.791C475.991 350.503 460.536 361.238 444.469 371.279C420.144 386.481 395.351 400.937 370.676 415.574C367.313 417.569 363.485 418.781 359.132 420.295C359.379 419.054 360.366 417.875 362.222 416.172C363.565 415.164 364.039 414.678 364.513 414.192Z" fill="#262D52"/>
<path d="M653.711 510.888C653.125 488.074 652.707 466.189 652.702 443.195C653.115 442.087 654.03 441.747 654.444 441.829C654.857 441.911 655.691 442.03 655.691 442.03C655.743 486.429 655.247 530.84 656.219 575.219C656.475 586.92 656.037 597.461 648.162 607.858C646.682 609.722 646.407 610.936 646.132 612.15C646.132 612.15 646.002 612.009 645.428 611.9C643.947 612.672 643.04 613.554 642.132 614.436C642.132 614.436 642.175 614.225 641.583 614.209C640.067 614.213 639.143 614.232 638.272 613.556C645.768 602.222 654.569 592.172 653.507 577.846C653.543 576.42 653.579 574.994 653.72 571.971C653.751 566.226 653.677 562.078 653.603 557.931C653.694 542.559 653.786 527.187 653.711 510.888Z" fill="#89547B"/>
<path d="M480.473 704.414C500.467 693.084 520.832 682.391 541.591 671.196C550.082 666.556 558.18 662.418 567.028 658.771C567.841 659.651 567.904 660.04 567.966 660.43C550.066 671.251 532.3 682.302 514.214 692.804C503.888 698.8 494.079 706.754 480.473 704.414Z" fill="#262D52"/>
<path d="M568.744 660.296C567.904 660.04 567.841 659.651 567.725 658.673C573.591 654.5 579.512 650.916 585.717 646.698C602.548 636.524 619.095 626.984 635.949 616.759C636.257 616.073 636.133 616.008 636.646 615.946C637.443 615.304 637.726 614.725 638.043 614.209C638.077 614.272 638.219 614.252 638.219 614.252C639.143 614.232 640.067 614.213 641.686 614.24C638.835 617.77 635.771 622.02 631.66 624.603C613.291 636.144 594.651 647.255 576.021 658.373C574.161 659.484 571.702 659.591 568.744 660.296Z" fill="#A39DB0"/>
<path d="M655.785 441.092C655.691 442.03 654.857 441.911 654.352 440.978C653.708 435.468 653.568 430.892 653.428 426.316C653.095 413.287 652.609 400.258 652.515 387.227C652.482 382.708 653.423 378.183 653.99 372.765C654.697 374.568 655.866 377.263 655.883 379.965C656.011 400.027 655.909 420.091 655.785 441.092Z" fill="#AF6267"/>
<path d="M586.605 532.625C586.209 537.398 585.813 542.17 584.791 547.42C584.061 519.875 583.957 491.852 584.011 462.898C584.884 463.069 585.598 464.171 586.346 466.808C586.454 489.77 586.53 511.198 586.605 532.625Z" fill="#A39DB0"/>
<path d="M417.303 448.018C418.051 474.445 418.061 501.386 418.052 529.279C417.357 529.237 416.088 528.24 416.091 527.247C416.169 501.008 416.378 474.77 417.303 448.018Z" fill="#A39DB0"/>
<path d="M458.172 696.762C463.768 698.121 469.665 700.117 475.888 702.69C470.301 701.311 464.387 699.355 458.172 696.762Z" fill="#262D52"/>
<path d="M440.286 686.649C443.254 687.531 446.499 689.028 449.882 691.222C446.868 690.367 443.716 688.815 440.286 686.649Z" fill="#262D52"/>
<path d="M422.512 676.154C424.493 676.845 427.045 677.875 429.734 679.518C427.609 678.917 425.346 677.704 422.512 676.154Z" fill="#262D52"/>
<path d="M434.032 682.827C435.716 683.055 437.652 683.885 439.777 685.357C438.072 685.143 436.179 684.285 434.032 682.827Z" fill="#262D52"/>
<path d="M450.319 692.594C451.935 692.831 453.794 693.684 455.916 695.135C454.306 694.891 452.434 694.05 450.319 692.594Z" fill="#262D52"/>
<path d="M427.468 540.719C428.66 540.972 430.179 541.784 431.859 543.277C430.612 543.064 429.203 542.172 427.468 540.719Z" fill="#262D52"/>
<path d="M642.753 614.783C643.04 613.554 643.947 612.672 645.504 611.958C645.226 613.128 644.3 614.129 642.753 614.783Z" fill="#A39DB0"/>
<path d="M646.742 611.928C646.407 610.936 646.682 609.722 647.575 608.246C647.913 609.225 647.632 610.465 646.742 611.928Z" fill="#A39DB0"/>
<path d="M385.872 652.617C386.31 652.342 386.849 652.658 387.665 653.395C387.34 653.523 386.683 653.32 385.872 652.617Z" fill="#473994"/>
<path d="M430.135 680.524C430.489 680.207 431.014 680.445 431.778 681.144C431.411 681.62 430.841 681.446 430.135 680.524Z" fill="#262D52"/>
<path d="M349.444 348.314C349.579 348.828 349.134 349.208 348.234 349.722C348.209 349.378 348.571 348.82 349.444 348.314Z" fill="#56AFDF"/>
<path d="M456.052 357.018C455.745 358.275 454.782 359.309 453.267 360.446C453.608 359.299 454.502 358.048 456.052 357.018Z" fill="#3977B5"/>
<path d="M449.756 362.341C450.01 362.834 449.607 363.326 448.483 363.714C448.364 363.294 448.808 362.871 449.756 362.341Z" fill="#3977B5"/>
<path d="M451.869 360.597C452.178 361.146 451.764 361.631 450.612 362.039C450.405 361.57 450.829 361.094 451.869 360.597Z" fill="#3977B5"/>
<path d="M586.966 533.223C586.529 511.198 586.454 489.77 586.496 467.475C586.386 479.533 595.556 487.734 601.366 497.905C613.339 518.865 623.174 541.045 633.929 562.703C636.555 567.989 639.987 572.979 641.841 578.51C643.283 582.815 642.85 587.749 645.121 593.189C647.516 588.273 649.912 583.357 652.907 578.144C654.568 592.172 645.768 602.222 638.272 613.556C638.219 614.252 638.077 614.272 637.61 614.381C636.592 614.854 636.255 615.36 636.133 616.008C636.133 616.008 636.257 616.073 636.253 616.141C634.93 616.146 633.559 615.812 632.303 616.06C619.886 618.512 618.159 617.114 614.123 605.129C608.389 588.102 604.781 570.338 593.437 555.322C589.25 549.78 589.241 541.08 586.966 533.223Z" fill="#AF6267"/>
<path d="M652.976 558.244C653.677 562.078 653.751 566.226 653.689 571.258C653.152 567.614 652.75 563.085 652.976 558.244Z" fill="#AF6267"/>
<path d="M614.404 416.578C604.186 402.621 593.678 389.621 584.996 375.498C579.842 367.113 577.565 356.959 574 346.756C576.28 343.522 578.272 340.748 580.889 338.824C586.472 334.72 590.995 335.95 593.131 342.725C603.243 374.805 624.176 400.056 644.779 425.596C646.968 428.31 646.967 432.79 647.946 437.271C636.901 431.082 625.892 424.072 614.404 416.578Z" fill="#F0BB41"/>
<path d="M653.077 426.905C653.568 430.892 653.708 435.468 653.939 440.896C654.03 441.747 653.114 442.087 652.67 442.297C650.909 441.456 649.591 440.406 648.094 438.73C649.518 434.567 651.122 431.03 653.077 426.905Z" fill="#F0BB41"/>
<path d="M390.113 398.437C390.108 398.772 389.598 399.253 388.565 399.843C388.564 399.495 389.086 399.039 390.113 398.437Z" fill="#438DC7"/>
<path d="M393.853 396.365C394.096 396.903 393.662 397.364 392.507 397.664C392.392 397.212 392.856 396.808 393.853 396.365Z" fill="#438DC7"/>
<path d="M396.488 394.604C396.483 394.982 395.899 395.504 394.737 396.168C394.742 395.79 395.326 395.269 396.488 394.604Z" fill="#438DC7"/>
<path d="M364.043 414.353C364.039 414.678 363.565 415.164 362.571 415.708C362.467 415.238 362.975 414.821 364.043 414.353Z" fill="#50A4D8"/>
<path d="M369.902 410.399C369.923 410.723 369.488 411.229 368.541 411.822C368.394 411.352 368.866 410.909 369.902 410.399Z" fill="#50A4D8"/>
<path d="M636.647 615.946C636.255 615.36 636.592 614.854 637.576 614.318C637.727 614.725 637.443 615.304 636.647 615.946Z" fill="#89547B"/>
</svg>
