<?xml version="1.0" standalone="no"?>
<!DOCTYPE svg PUBLIC "-//W3C//DTD SVG 1.0//EN" "http://www.w3.org/TR/2001/REC-SVG-20010904/DTD/svg10.dtd">
<svg xmlns="http://www.w3.org/2000/svg" xmlns:xlink="http://www.w3.org/1999/xlink" id="body_1" width="1024" height="768">

<g transform="matrix(1.3333334 0 0 1.3333334 0 0)">
	<path  d="M0 0L768 0L768 576L0 576z" stroke="none"  fill="#FFFFFF" fill-rule="evenodd" />
	<g transform="matrix(1 0 0 1 0 0)">
		<g transform="matrix(2.304 0 0 2.304 192.00003 -0)">
			<path  d="M238 501C 158.66669 501 79.833374 501 1.000042 501C 1.000028 334.3334 1.000028 167.66678 1.000014 1.000132C 167.66656 1.000088 334.33313 1.000088 500.99976 1.000044C 500.99985 167.66652 500.99985 334.33304 500.99994 500.9998C 413.5 501 326 501 238 501M323.67593 305.85272C 323.8162 305.23254 323.95645 304.61237 324.6832 303.6038C 328.0186 298.7307 328.23746 293.45996 328.10928 287.6093C 327.62323 265.4199 327.87158 243.21439 327.9394 220.077C 327.9543 210.04538 328.00522 200.01352 327.94162 189.9824C 327.93307 188.63129 327.34824 187.28384 326.888 185.20627C 326.08374 183.47629 325.38742 181.68571 324.4561 180.02708C 320.86337 173.6288 314.46008 170.62744 308.60602 166.9081C 299.89804 161.37549 297.847 160.87361 290.0565 167.13539C 284.78973 171.3686 280.62805 176.97661 275.2936 182.23558C 274.4554 183.4222 273.52545 184.5552 272.7955 185.80504C 270.1386 190.3543 273.03235 199.14691 277.88876 201.1431C 280.5437 202.23439 283.29724 203.0858 286.26822 204.69382C 288.23337 208.45175 290.19852 212.20969 292.01968 216.89397C 292.04144 221.59044 292.0632 226.2869 291.92627 231.91443C 291.97836 245.92598 292.03046 259.93753 292.00143 274.71527C 289.314 278.80484 286.62653 282.89438 283.28433 287.26367C 271.8409 294.1546 260.39752 301.04553 248.28336 308.26385C 244.22432 309.02338 239.4332 311.5344 236.2481 310.20306C 227.81772 306.67938 220.08238 301.49283 211.81557 296.30463C 199.85374 288.84927 187.93756 281.31903 175.90485 273.97992C 171.80301 271.47806 166.29813 272.64896 163.8001 276.8704C 159.3261 284.43097 158.67787 292.6317 161.11148 301.7577C 163.13724 304.69174 164.55957 308.497 167.30197 310.39633C 175.50534 316.07785 184.22537 321.01334 192.87306 326.19263C 192.87306 326.19263 192.85892 326.05865 193.01288 326.55853C 193.34138 326.65997 193.66988 326.7614 194.26474 327.50735C 196.864 328.96457 199.46327 330.42178 202.40894 332.46146C 205.26292 334.27682 208.11691 336.0922 211.54132 338.24597C 212.67291 338.85223 213.8045 339.4585 214.97209 340.01306C 214.97209 340.01306 214.94684 340.06107 215.18828 340.4625C 215.42027 340.7228 215.70526 340.81018 216.49309 340.86044C 216.49309 340.86044 216.88945 341.1127 217.14287 341.71393C 218.08945 342.14258 219.03604 342.57126 219.99245 343.00998C 219.99245 343.00998 220.00449 343.01736 220.28189 343.63165C 221.85796 344.40753 223.434 345.1834 224.99858 345.9981C 224.99858 345.9981 225.03796 345.98898 225.28082 346.6046C 226.21687 347.02518 227.15294 347.44574 228.52695 347.9015C 228.52695 347.9015 228.93553 348.06305 229.23636 348.69943C 232.19333 349.6775 235.15031 350.65558 238.75784 351.70044C 239.18889 351.76328 239.61992 351.82608 240.42223 352.52505C 247.03943 353.3769 251.9439 349.39984 257.1072 346.4018C 266.15 341.15112 275.03302 335.6253 284.76074 330.08148C 285.85114 329.79526 287.08038 329.74176 288.01035 329.18674C 297.3256 323.62766 306.6456 318.07202 315.83 312.30173C 317.8857 311.01016 319.41757 308.8848 321.08752 307.11237C 321.08752 307.11237 321.06604 307.21783 321.68668 307.56506C 322.14987 307.06448 322.61307 306.5639 323.00073 306.00446C 323.00073 306.00446 323.06573 306.07513 323.67593 305.85272M173.98967 174.99103C 173.98967 174.99103 173.95221 174.93228 173.22908 175.0263C 161.58676 179.83601 159.19742 186.67421 160.09145 197.47691C 160.96196 207.99539 168.83289 218.40529 179.93634 210.17789C 181.74255 209.39062 183.65627 208.78459 185.33778 207.78711C 197.67526 200.46849 210.07188 193.24057 222.23456 185.63953C 230.26823 180.61888 237.9955 175.25165 248.23793 176.89569C 249.63252 177.11954 251.57455 177.05617 252.54962 176.25615C 258.2781 171.55606 263.89395 166.70299 269.28433 161.62206C 270.17014 160.7871 269.75195 158.56873 269.85336 156.34903C 269.7861 155.41333 269.84784 154.44656 269.63126 153.54683C 267.90677 146.38394 261.00748 144.62292 255.9712 141.23994C 251.85434 138.47452 247.99045 134.04475 241.18713 135.0667C 240.20386 135.0558 238.98778 134.66049 238.27316 135.09323C 230.77208 139.63559 223.35121 144.31042 215.18732 149.04327C 205.44438 154.97887 195.70145 160.91446 185.32756 167.17679C 181.87758 169.51233 178.4276 171.84787 174.4659 174.13094C 174.28523 174.40999 174.10457 174.68903 173.98967 174.99103M216.71867 272.09637C 223.47876 275.936 230.04965 280.18805 237.08958 283.4177C 240.0135 284.75906 244.4413 285.07623 247.3081 283.83438C 253.95952 280.9531 260.32483 277.19647 266.29367 273.056C 268.8201 271.30344 271.34967 267.81873 271.63196 264.90384C 272.38217 257.15652 272.11002 249.28409 271.84427 241.47505C 271.70288 237.32079 269.4624 234.77994 264.75952 234.98544C 260.11072 235.1886 255.44516 234.98851 250.78706 235.00375C 245.76558 235.02019 242.26118 238.26279 242.02501 243.05678C 241.624 251.19649 243.65092 254.25183 249.82382 255.00179C 251.43391 255.1974 253.00824 255.68764 254.59898 256.04257C 254.64278 256.492 254.68657 256.94147 254.73036 257.3909C 251.77817 259.04034 248.83698 260.70987 245.871 262.3342C 242.0338 264.43567 238.36046 264.34467 234.63675 261.82602C 231.91838 259.9874 228.94476 258.5261 225.6947 256.16336C 225.48662 249.05496 225.13089 241.94499 225.20667 234.83961C 225.22029 233.56119 226.77429 231.95168 228.02832 231.10155C 231.3088 228.87766 235.10121 227.33998 238.15169 224.86568C 241.01726 222.54137 243.2354 223.2439 245.76135 224.88966C 247.42868 225.97598 249.03499 227.17302 250.7739 228.12894C 254.63435 230.25108 257.40268 229.04082 261.9013 223.43285C 266.10547 218.19194 265.9532 216.5456 260.418 212.74727C 256.61884 210.1402 252.45415 208.04773 248.75937 205.31136C 244.5645 202.20464 240.6274 202.57759 236.41673 204.99867C 230.42693 208.4427 224.65433 212.48552 218.28073 214.96754C 213.60815 216.78711 211.19487 219.87067 208.2823 224.26578C 208.18896 237.38492 208.08444 250.50403 208.04558 263.62332C 208.04411 264.11984 208.67854 264.61826 208.98193 265.78903C 210.33122 267.1934 211.68053 268.59775 213.29533 270.07437C 213.29533 270.07437 213.57043 270.07974 213.8971 270.63947C 214.60146 271.08582 215.30583 271.5322 216.71867 272.09637z" stroke="none"  fill="none" />
			<path  d="M213.02983 270.0021C 211.68053 268.59775 210.33122 267.1934 209.00864 264.97614C 209.03043 250.69284 209.0255 237.22247 209.02057 223.7521C 211.19487 219.87067 213.60815 216.78711 218.28073 214.96754C 224.65433 212.48552 230.42693 208.4427 236.41673 204.99867C 240.6274 202.57759 244.5645 202.20464 248.75937 205.31136C 252.45415 208.04773 256.61884 210.1402 260.418 212.74727C 265.9532 216.5456 266.10547 218.19194 261.9013 223.43285C 257.40268 229.04082 254.63435 230.25108 250.7739 228.12894C 249.03499 227.17302 247.42868 225.97598 245.76135 224.88966C 243.2354 223.2439 241.01726 222.54137 238.15169 224.86568C 235.10121 227.33998 231.3088 228.87766 228.02832 231.10155C 226.77429 231.95168 225.22029 233.56119 225.20667 234.83961C 225.13089 241.94499 225.48662 249.05496 225.84685 256.94516C 225.49442 260.50262 224.93156 263.26926 224.4991 266.0561C 223.87311 270.0901 222.51263 271.84985 218.2758 269.12247C 217.1729 268.4125 214.8126 269.65588 213.02983 270.0021z" stroke="none"  fill="#262D52" fill-rule="nonzero" />
			<path  d="M213.16258 270.03824C 214.8126 269.65588 217.1729 268.4125 218.2758 269.12247C 222.51263 271.84985 223.87311 270.0901 224.4991 266.0561C 224.93156 263.26926 225.49442 260.50262 226.04196 257.31177C 228.94476 258.5261 231.91838 259.9874 234.63675 261.82602C 238.36046 264.34467 242.0338 264.43567 245.871 262.3342C 248.83698 260.70987 251.77817 259.04034 254.73036 257.3909C 254.68657 256.94147 254.64278 256.492 254.59898 256.04257C 253.00824 255.68764 251.43391 255.1974 249.82382 255.00179C 243.65092 254.25183 241.624 251.19649 242.02501 243.05678C 242.26118 238.26279 245.76558 235.02019 250.78706 235.00375C 255.44516 234.98851 260.11072 235.1886 264.75952 234.98544C 269.4624 234.77994 271.70288 237.32079 271.84427 241.47505C 272.11002 249.28409 272.38217 257.15652 271.63196 264.90384C 271.34967 267.81873 268.8201 271.30344 266.29367 273.056C 260.32483 277.19647 253.95952 280.9531 247.3081 283.83438C 244.4413 285.07623 240.0135 284.75906 237.08958 283.4177C 230.04965 280.18805 223.47876 275.936 216.28381 271.69727C 215.08945 270.892 214.32994 270.48587 213.57043 270.07974C 213.57043 270.07974 213.29533 270.07437 213.16258 270.03824z" stroke="none"  fill="#1E1941" fill-rule="nonzero" />
			<path  d="M192.74368 326.2401C 184.22537 321.01334 175.50534 316.07785 167.30197 310.39633C 164.55957 308.497 163.13724 304.69174 161.48041 301.5595C 165.02298 302.79193 168.37029 305.7129 171.33694 305.36716C 179.46692 304.41974 187.41783 302.12717 195.64441 304.77734C 196.56871 305.07513 197.84352 304.30997 198.94946 304.01416C 202.18022 303.15002 205.40778 302.2739 208.63658 301.40247C 208.81195 301.8024 208.98734 302.20233 209.1627 302.60226C 210.13194 300.72418 211.10118 298.84613 212.07043 296.96805C 220.08238 301.49283 227.81772 306.67938 236.2481 310.20306C 239.4332 311.5344 244.22432 309.02338 248.8552 308.29663C 251.69714 308.45685 253.02179 308.9303 254.38869 311.54083C 256.86145 316.2635 253.12463 318.63107 251.59105 321.9867C 244.15077 320.26514 237.39474 320.79855 230.75473 323.82278C 229.07405 324.58832 226.91629 324.42807 224.97282 324.4712C 219.85323 324.58493 214.73007 324.64285 209.61021 324.57675C 208.06157 324.55673 206.33086 324.41302 205.00967 323.71164C 201.2877 321.7358 195.84195 322.71918 192.74368 326.2401z" stroke="none"  fill="#473994" fill-rule="nonzero" />
			<path  d="M252.0183 321.98975C 253.12463 318.63107 256.86145 316.2635 254.38869 311.54083C 253.02179 308.9303 251.69714 308.45685 249.19057 308.13293C 260.39752 301.04553 271.8409 294.1546 283.6244 287.54028C 286.10242 298.397 288.17764 308.99066 290.4596 319.53958C 290.73804 320.82687 292.1269 321.8739 292.8587 323.34888C 289.75595 325.4578 286.7956 327.25012 283.48706 329.09137C 279.09006 331.2092 275.04126 333.27805 270.98694 334.91977C 269.87418 330.7454 268.7669 326.99814 267.4426 322.51624C 264.65738 325.33014 262.82935 327.17694 260.66437 328.9513C 257.55768 326.58243 254.78798 324.2861 252.0183 321.98975z" stroke="none"  fill="#5D468D" fill-rule="nonzero" />
			<path  d="M211.943 296.63635C 211.10118 298.84613 210.13194 300.72418 209.1627 302.60226C 208.98734 302.20233 208.81195 301.8024 208.63658 301.40247C 205.40778 302.2739 202.18022 303.15002 198.94946 304.01416C 197.84352 304.30997 196.56871 305.07513 195.64441 304.77734C 187.41783 302.12717 179.46692 304.41974 171.33694 305.36716C 168.37029 305.7129 165.02298 302.79193 161.54672 301.20862C 158.67787 292.6317 159.3261 284.43097 163.8001 276.8704C 166.29813 272.64896 171.80301 271.47806 175.90485 273.97992C 187.93756 281.31903 199.85374 288.84927 211.943 296.63635z" stroke="none"  fill="#44479D" fill-rule="nonzero" />
			<path  d="M185.9585 166.85004C 195.70145 160.91446 205.44438 154.97887 215.95142 148.98564C 218.18036 148.64787 219.69269 148.00897 221.09583 148.19476C 222.3437 148.35999 224.34895 149.28198 224.50273 150.14143C 225.27502 154.45752 225.39032 158.88647 226.0398 163.23042C 226.81384 168.40756 227.89598 173.53865 228.71335 178.72092C 228.58203 178.75217 228.35391 178.6203 228.02597 178.50919C 227.25104 179.02376 226.80402 179.64944 226.29575 180.30334C 226.23448 180.33157 226.1629 180.21725 225.93439 180.29834C 225.41472 180.5471 225.20255 180.78519 225.0375 181.0535C 225.00566 181.0133 225.08856 181.0736 224.87805 181.17038C 224.40414 181.43562 224.18184 181.64725 223.7241 182.11641C 216.11841 186.76767 208.78923 191.20456 201.36328 195.15826C 201.16068 189.34093 200.86497 184.13475 197.48605 179.5166C 196.40369 178.03728 196.61848 175.66788 195.94933 173.81035C 195.30254 172.01494 194.13715 170.40959 193.45366 168.62354C 191.785 164.26306 188.09258 168.92926 185.9585 166.85004z" stroke="none"  fill="#438DC7" fill-rule="nonzero" />
			<path  d="M292.08493 230.98337C 292.0632 226.2869 292.04144 221.59044 292.40485 216.55931C 294.43225 218.98195 296.0745 221.73924 297.68207 224.43835C 299.29834 223.52307 300.50177 222.84157 302.82864 221.52386C 301.86847 227.9691 304.86636 231.39088 309.2308 233.95227C 309.4913 234.10515 309.63116 234.47641 309.8072 234.75854C 313.23038 240.24588 316.86957 245.61461 319.98175 251.2732C 321.6095 254.2327 323.59573 255.40894 326.85516 255.44385C 326.89294 263.59363 326.84708 271.2795 326.48776 279.12186C 326.375 281.54266 326.5757 283.80698 326.79184 286.42773C 326.78928 287.49707 326.7713 288.2099 326.45355 289.07184C 324.95593 291.6787 323.75818 294.1365 322.5604 296.5943C 321.42508 293.8744 321.6417 291.4076 320.92038 289.25513C 319.99362 286.48953 318.27734 283.99442 316.96472 281.3513C 311.58698 270.52246 306.66937 259.4326 300.68317 248.95247C 297.77823 243.86679 293.19296 239.76665 293.2315 232.97006C 292.79913 232.08551 292.44205 231.53444 292.08493 230.98337z" stroke="none"  fill="#C97154" fill-rule="nonzero" />
			<path  d="M275.97208 181.9697C 280.62805 176.97661 284.78973 171.3686 290.0565 167.13539C 297.847 160.87361 299.89804 161.37549 308.60602 166.9081C 314.46008 170.62744 320.86337 173.6288 324.4561 180.02708C 325.38742 181.68571 326.08374 183.47629 326.92377 186.01825C 326.7115 189.09137 326.24115 191.3541 326.25745 193.61333C 326.3044 200.12901 326.54764 206.6433 326.53842 213.45242C 325.56113 215.51518 324.7592 217.28365 323.97864 219.02863C 324.00003 219.00516 323.95474 219.04579 323.97302 218.63556C 323.48367 216.39494 323.48404 214.1548 322.38943 212.79794C 312.08798 200.02802 301.62125 187.40228 296.56537 171.36237C 295.4976 167.9748 293.2361 167.36006 290.4446 169.41217C 289.13602 170.37413 288.13974 171.76096 286.7149 173.12682C 282.9426 176.18884 279.45734 179.07927 275.97208 181.9697z" stroke="none"  fill="#F6D14D" fill-rule="nonzero" />
			<path  d="M326.77148 254.9799C 323.59573 255.40894 321.6095 254.2327 319.98175 251.2732C 316.86957 245.61461 313.23038 240.24588 309.8072 234.75854C 309.63116 234.47641 309.4913 234.10515 309.2308 233.95227C 304.86636 231.39088 301.86847 227.9691 302.82864 221.52386C 300.50177 222.84157 299.29834 223.52307 297.68207 224.43835C 296.0745 221.73924 294.43225 218.98195 292.4768 216.09615C 290.19852 212.20969 288.23337 208.45175 286.56885 204.33453C 293.56735 205.33246 300.26517 206.68965 307.20215 208.28894C 312.9458 212.03595 318.4503 215.54086 323.95474 219.04578C 323.95474 219.04579 324.00003 219.00516 324.0686 219.34161C 324.7958 220.20302 325.45447 220.72797 326.1289 221.70232C 326.3536 233.09445 326.56256 244.03719 326.77148 254.9799z" stroke="none"  fill="#DA8C3F" fill-rule="nonzero" />
			<path  d="M293.00113 323.0323C 292.1269 321.8739 290.73804 320.82687 290.4596 319.53958C 288.17764 308.99066 286.10242 298.397 283.95172 287.40042C 286.62653 282.89438 289.314 278.80484 292.355 274.09314C 292.9066 271.08487 293.10455 268.69876 293.48306 266.6114C 294.6208 270.54 294.625 274.8899 296.7187 277.66116C 302.39066 285.16882 304.1947 294.05087 307.06152 302.56427C 309.07953 308.55685 309.9428 309.25598 316.1514 308.03018C 316.77963 307.90613 317.46527 308.073 317.9724 308.4135C 309.54742 313.4922 301.27426 318.26224 293.00113 323.0323z" stroke="none"  fill="#89547B" fill-rule="nonzero" />
			<path  d="M251.59105 321.9867C 254.78798 324.2861 257.55768 326.58243 260.5916 329.3386C 260.53372 331.58926 260.56668 333.5618 259.77368 335.11172C 259.17255 336.2866 257.41202 337.78442 256.3515 337.65305C 251.11949 337.0047 245.96216 335.77902 240.74947 334.93634C 238.86787 334.63214 236.90388 334.8665 234.9802 334.78864C 226.29536 334.43716 217.605 334.1664 208.93166 333.6255C 206.61464 333.481 204.35078 332.4844 202.06253 331.879C 199.46327 330.42178 196.864 328.96457 193.96597 327.01987C 193.4244 326.32907 193.15495 326.17117 192.85892 326.05865C 192.85892 326.05865 192.87306 326.19263 192.80838 326.21637C 195.84195 322.71918 201.2877 321.7358 205.00967 323.71164C 206.33086 324.41302 208.06157 324.55673 209.61021 324.57675C 214.73007 324.64285 219.85323 324.58493 224.97282 324.4712C 226.91629 324.42807 229.07405 324.58832 230.75473 323.82278C 237.39474 320.79855 244.15077 320.26514 251.59105 321.9867z" stroke="none"  fill="#493192" fill-rule="nonzero" />
			<path  d="M228.84465 178.68968C 227.89598 173.53865 226.81384 168.40756 226.0398 163.23042C 225.39032 158.88647 225.27502 154.45752 224.50273 150.14143C 224.34895 149.28198 222.3437 148.35999 221.09583 148.19476C 219.69269 148.00897 218.18036 148.64787 216.31186 148.93832C 223.35121 144.31042 230.77208 139.63559 238.27316 135.09323C 238.98778 134.66049 240.20386 135.0558 241.72116 135.45003C 246.65382 137.40808 247.48407 139.95117 244.6163 143.77693C 243.86162 144.78375 243.28415 146.25732 243.34 147.48401C 243.72147 155.86014 244.29364 164.22758 244.84378 173.24478C 242.60277 173.7112 239.79561 174.29546 236.65462 175.01302C 233.82872 176.32744 231.33669 177.50856 228.84465 178.68968z" stroke="none"  fill="#3977B5" fill-rule="nonzero" />
			<path  d="M236.98846 174.8797C 239.79561 174.29546 242.60277 173.7112 244.84378 173.24478C 244.29364 164.22758 243.72147 155.86014 243.34 147.48401C 243.28415 146.25732 243.86162 144.78375 244.6163 143.77693C 247.48407 139.95117 246.65382 137.40808 242.129 135.5221C 247.99045 134.04475 251.85434 138.47452 255.9712 141.23994C 261.00748 144.62292 267.90677 146.38394 269.63126 153.54683C 269.84784 154.44656 269.7861 155.41333 269.63516 156.87714C 267.09607 159.9612 264.70285 162.4556 262.4679 165.08458C 255.74193 172.9964 247.53325 176.95024 236.98846 174.8797z" stroke="none"  fill="#336CAB" fill-rule="nonzero" />
			<path  d="M185.64304 167.01341C 188.09258 168.92926 191.785 164.26306 193.45366 168.62354C 194.13715 170.40959 195.30254 172.01494 195.94933 173.81035C 196.61848 175.66788 196.40369 178.03728 197.48605 179.5166C 200.86497 184.13475 201.16068 189.34093 201.14781 195.33952C 200.1973 196.41264 199.36546 196.82133 198.24414 197.30194C 197.66278 197.63445 197.37094 197.89502 197.07812 198.11682C 197.07715 198.07803 197.1478 198.11012 196.92668 198.18243C 196.42775 198.40385 196.19617 198.60591 195.84737 198.96146C 195.68391 199.06197 195.30945 199.14587 195.05656 199.21841C 194.54297 199.51926 194.28226 199.74756 193.77963 200.22028C 190.7789 202.04143 188.0201 203.6182 185.2175 204.82655C 184.51909 202.08586 184.2059 199.54749 183.14749 197.37163C 179.60071 190.08032 173.94502 183.67976 173.95221 174.93228C 173.95221 174.93228 173.98967 174.99103 174.1499 174.87262C 174.5669 174.60402 174.78938 174.41376 174.97762 174.18341C 178.4276 171.84787 181.87758 169.51233 185.64304 167.01341z" stroke="none"  fill="#50A4D8" fill-rule="nonzero" />
			<path  d="M202.23573 332.17023C 204.35078 332.4844 206.61464 333.481 208.93166 333.6255C 217.605 334.1664 226.29536 334.43716 234.9802 334.78864C 236.90388 334.8665 238.86787 334.63214 240.74947 334.93634C 245.96216 335.77902 251.11949 337.0047 256.3515 337.65305C 257.41202 337.78442 259.17255 336.2866 259.77368 335.11172C 260.56668 333.5618 260.53372 331.58926 260.9286 329.41107C 262.82935 327.17694 264.65738 325.33014 267.4426 322.51624C 268.7669 326.99814 269.87418 330.7454 270.7902 335.17072C 260.41626 341.1955 250.23361 346.5422 240.05096 351.88892C 239.61992 351.82608 239.18889 351.76328 238.2694 351.37817C 234.83247 350.05832 231.884 349.0607 228.93553 348.06305C 228.93553 348.06305 228.52695 347.9015 228.17685 347.5849C 226.89714 346.84186 225.96756 346.4154 225.03796 345.98898C 225.03796 345.98898 224.99858 345.9981 224.93555 345.63022C 223.24983 344.514 221.62717 343.7657 220.00449 343.01736C 220.00449 343.01736 219.99245 343.00998 219.89348 342.68378C 218.82616 341.9426 217.8578 341.52765 216.88945 341.11267C 216.88945 341.1127 216.49309 340.86044 216.11377 340.63965C 215.5069 340.22266 215.24437 340.10336 214.94684 340.06107C 214.94684 340.06107 214.97209 340.01306 214.88522 339.73297C 213.52255 338.93774 212.24673 338.42264 210.97092 337.90753C 208.11691 336.0922 205.26292 334.27682 202.23573 332.17023z" stroke="none"  fill="#4E2989" fill-rule="nonzero" />
			<path  d="M173.59064 174.9793C 173.94502 183.67976 179.60071 190.08032 183.14749 197.37163C 184.2059 199.54749 184.51909 202.08586 185.18018 204.82071C 185.18666 205.18329 185.17902 205.10886 184.95093 205.19943C 184.433 205.45442 184.19682 205.67601 183.84973 206.16809C 183.20891 206.6196 182.73262 206.85779 182.02136 207.17636C 181.48717 207.4103 181.23347 207.61913 180.85092 208.11539C 180.18303 208.93738 179.68951 209.52724 179.196 210.1171C 168.83289 218.40529 160.96196 207.99539 160.09145 197.47691C 159.19742 186.67421 161.58676 179.83601 173.59064 174.9793z" stroke="none"  fill="#56AFDF" fill-rule="nonzero" />
			<path  d="M306.963 208.04686C 300.26517 206.68965 293.56735 205.33246 286.43793 204.01033C 283.29724 203.0858 280.5437 202.23439 277.88876 201.1431C 273.03235 199.14691 270.1386 190.3543 272.7955 185.80504C 273.52545 184.5552 274.4554 183.4222 275.63284 182.10263C 279.45734 179.07927 282.9426 176.18884 286.7127 173.54947C 288.7827 178.47972 289.92093 183.55664 292.49808 187.74902C 296.83896 194.8105 302.09305 201.31062 306.963 208.04686z" stroke="none"  fill="#E6AA41" fill-rule="nonzero" />
			<path  d="M182.25633 207.09598C 182.73262 206.85779 183.20891 206.6196 184.10605 206.1244C 184.74426 205.61455 184.96164 205.36171 185.17902 205.10886C 185.17902 205.10886 185.18666 205.18329 185.22397 205.18912C 188.0201 203.6182 190.7789 202.04143 194.0408 200.16582C 194.79907 199.6266 195.05426 199.38623 195.30945 199.14587C 195.30945 199.14587 195.68391 199.06197 196.09023 198.93237C 196.83086 198.68216 197.04794 198.45128 197.1478 198.11012C 197.1478 198.11012 197.07715 198.07803 197.3674 198.04535C 197.94965 197.75179 198.24164 197.4909 198.53363 197.23003C 199.36546 196.82133 200.1973 196.41264 201.2446 195.8227C 208.78923 191.20456 216.11841 186.76767 223.96518 182.07149C 224.80324 181.66324 225.00517 181.41704 225.08856 181.0736C 225.08856 181.0736 225.00566 181.0133 225.27426 180.97916C 225.88219 180.81544 226.08887 180.57285 226.1629 180.21725C 226.1629 180.21725 226.23448 180.33157 226.57202 180.25146C 227.391 179.65434 227.87247 179.13733 228.35391 178.6203C 228.35391 178.6203 228.58203 178.75217 228.71335 178.72092C 231.33669 177.50856 233.82872 176.32744 236.65462 175.01303C 247.53325 176.95024 255.74193 172.9964 262.4679 165.08458C 264.70285 162.4556 267.09607 159.9612 269.6767 157.1975C 269.75195 158.56873 270.17014 160.7871 269.28433 161.62206C 263.89395 166.70299 258.2781 171.55606 252.54962 176.25615C 251.57455 177.05617 249.63252 177.11954 248.23793 176.89569C 237.9955 175.25165 230.26823 180.61888 222.23456 185.63953C 210.07188 193.24057 197.67526 200.46849 185.33778 207.78711C 183.65627 208.78459 181.74255 209.39062 179.56616 210.14749C 179.68951 209.52724 180.18303 208.93738 181.11093 208.08612C 181.78233 207.58183 182.01933 207.33891 182.25633 207.09598z" stroke="none"  fill="#262D52" fill-rule="nonzero" />
			<path  d="M326.85516 255.44385C 326.56256 244.03719 326.3536 233.09445 326.3509 221.59775C 326.55713 221.04375 327.01505 220.87366 327.22165 220.9146C 327.42825 220.95554 327.8453 221.0149 327.84528 221.0149C 327.87158 243.21439 327.62323 265.4199 328.10928 287.6093C 328.23746 293.45996 328.0186 298.7307 324.0809 303.92896C 323.34097 304.8611 323.20334 305.46814 323.06573 306.07513C 323.06573 306.07513 323.00073 306.00446 322.71387 305.94983C 321.97336 306.3361 321.5197 306.77695 321.06604 307.21783C 321.06604 307.21783 321.08752 307.11237 320.79138 307.10452C 320.03333 307.1064 319.5714 307.11615 319.1361 306.77817C 322.88403 301.111 327.28418 296.08582 326.75336 288.92276C 326.7713 288.2099 326.78928 287.49707 326.86 285.9855C 326.87555 283.11298 326.83838 281.03918 326.8012 278.96536C 326.84708 271.2795 326.89294 263.59363 326.85516 255.44385z" stroke="none"  fill="#89547B" fill-rule="nonzero" />
			<path  d="M240.2366 352.20697C 250.23361 346.5422 260.41626 341.1955 270.79572 335.59784C 275.04126 333.27805 279.09006 331.2092 283.51416 329.3855C 283.9207 329.82535 283.95184 330.02005 283.98297 330.21475C 275.03302 335.6253 266.15 341.15112 257.1072 346.4018C 251.9439 349.39984 247.03943 353.3769 240.2366 352.20697z" stroke="none"  fill="#262D52" fill-rule="nonzero" />
			<path  d="M284.37186 330.14813C 283.95184 330.02005 283.9207 329.82535 283.86237 329.33652C 286.7956 327.25012 289.75595 325.4578 292.8587 323.34888C 301.27426 318.26224 309.54742 313.4922 317.97467 308.3794C 318.12872 308.03662 318.0663 308.00415 318.32318 307.97293C 318.7216 307.6521 318.86316 307.36252 319.02167 307.1045C 319.03857 307.13608 319.10953 307.1259 319.10953 307.12585C 319.5714 307.11615 320.03333 307.1064 320.8429 307.12C 319.41757 308.8848 317.8857 311.01016 315.83 312.30173C 306.6456 318.07202 297.3256 323.62766 288.01035 329.18674C 287.08038 329.74176 285.85114 329.79526 284.37186 330.14813z" stroke="none"  fill="#A39DB0" fill-rule="nonzero" />
			<path  d="M327.89233 220.54594C 327.8453 221.0149 327.42825 220.95554 327.1761 220.48875C 326.85385 217.73402 326.7838 215.44608 326.71378 213.15813C 326.54764 206.6433 326.3044 200.12901 326.25745 193.61333C 326.24115 191.3541 326.7115 189.09137 326.99487 186.38246C 327.34824 187.28384 327.93307 188.63129 327.94162 189.9824C 328.00522 200.01352 327.9543 210.04538 327.89233 220.54594z" stroke="none"  fill="#AF6267" fill-rule="nonzero" />
			<path  d="M293.30255 266.31265C 293.10455 268.69876 292.9066 271.08487 292.39557 273.71002C 292.03046 259.93753 291.97836 245.92598 292.0056 231.4489C 292.44205 231.53444 292.79913 232.08551 293.1728 233.40396C 293.22705 244.8851 293.2648 255.59888 293.30255 266.31265z" stroke="none"  fill="#A39DB0" fill-rule="nonzero" />
			<path  d="M208.65143 224.00894C 209.0255 237.22247 209.03043 250.69284 209.026 264.6395C 208.67854 264.61826 208.04411 264.11984 208.04558 263.62332C 208.08444 250.50403 208.18896 237.38492 208.65143 224.00894z" stroke="none"  fill="#A39DB0" fill-rule="nonzero" />
			<path  d="M229.08594 348.38123C 231.884 349.0607 234.83247 350.05832 237.94412 351.3448C 235.15031 350.65558 232.19333 349.6775 229.08594 348.38123z" stroke="none"  fill="#262D52" fill-rule="nonzero" />
			<path  d="M220.14319 343.32452C 221.62717 343.7657 223.24983 344.514 224.94128 345.6108C 223.434 345.1834 221.85796 344.40753 220.14319 343.32452z" stroke="none"  fill="#262D52" fill-rule="nonzero" />
			<path  d="M211.25612 338.07675C 212.24673 338.42264 213.52255 338.93774 214.86722 339.7588C 213.8045 339.4585 212.67291 338.85223 211.25612 338.07675z" stroke="none"  fill="#262D52" fill-rule="nonzero" />
			<path  d="M217.01616 341.4133C 217.8578 341.52765 218.82616 341.9426 219.88857 342.6787C 219.03604 342.57126 218.08945 342.14258 217.01616 341.4133z" stroke="none"  fill="#262D52" fill-rule="nonzero" />
			<path  d="M225.1594 346.2968C 225.96756 346.4154 226.89714 346.84186 227.95786 347.5673C 227.15294 347.44574 226.21687 347.02518 225.1594 346.2968z" stroke="none"  fill="#262D52" fill-rule="nonzero" />
			<path  d="M213.73376 270.35962C 214.32994 270.48587 215.08945 270.892 215.92957 271.63834C 215.30583 271.5322 214.60146 271.08582 213.73376 270.35962z" stroke="none"  fill="#262D52" fill-rule="nonzero" />
			<path  d="M321.37634 307.39145C 321.5197 306.77695 321.97336 306.3361 322.75165 305.97925C 322.61307 306.5639 322.14987 307.06448 321.37634 307.39145z" stroke="none"  fill="#A39DB0" fill-rule="nonzero" />
			<path  d="M323.37085 305.96393C 323.20334 305.46814 323.34097 304.8611 323.78766 304.12317C 323.95645 304.61237 323.8162 305.23254 323.37085 305.96393z" stroke="none"  fill="#A39DB0" fill-rule="nonzero" />
			<path  d="M192.9359 326.3086C 193.15495 326.17117 193.4244 326.32907 193.8328 326.69763C 193.66988 326.7614 193.34138 326.65997 192.9359 326.3086z" stroke="none"  fill="#473994" fill-rule="nonzero" />
			<path  d="M215.06757 340.26178C 215.24437 340.10336 215.5069 340.22266 215.88885 340.57178C 215.70526 340.81018 215.42027 340.7228 215.06757 340.26178z" stroke="none"  fill="#262D52" fill-rule="nonzero" />
			<path  d="M174.72176 174.15718C 174.78938 174.41376 174.5669 174.60402 174.117 174.86115C 174.10457 174.68903 174.28523 174.40999 174.72176 174.15718z" stroke="none"  fill="#56AFDF" fill-rule="nonzero" />
			<path  d="M228.02599 178.50919C 227.87247 179.13733 227.391 179.65434 226.63329 180.22324C 226.80402 179.64944 227.25104 179.02376 228.02599 178.50919z" stroke="none"  fill="#3977B5" fill-rule="nonzero" />
			<path  d="M224.87805 181.17038C 225.00517 181.41704 224.80324 181.66324 224.24171 181.85712C 224.18184 181.64725 224.40414 181.43562 224.87805 181.17038z" stroke="none"  fill="#3977B5" fill-rule="nonzero" />
			<path  d="M225.93439 180.29834C 226.08887 180.57285 225.88219 180.81544 225.3061 181.01935C 225.20255 180.78519 225.41472 180.5471 225.93439 180.29834z" stroke="none"  fill="#3977B5" fill-rule="nonzero" />
			<path  d="M293.48306 266.6114C 293.2648 255.59888 293.22705 244.8851 293.24805 233.73743C 293.19296 239.76665 297.77823 243.86679 300.68317 248.95247C 306.66937 259.4326 311.58698 270.52246 316.96472 281.3513C 318.27734 283.99442 319.99362 286.48953 320.92038 289.25513C 321.6417 291.4076 321.42508 293.8744 322.5604 296.5943C 323.75818 294.1365 324.95593 291.6787 326.45352 289.07184C 327.28418 296.08582 322.88403 301.111 319.1361 306.7782C 319.10953 307.1259 319.03857 307.13608 318.805 307.19052C 318.2959 307.42676 318.12753 307.6798 318.0663 308.00415C 318.0663 308.00415 318.12872 308.03662 318.1265 308.07074C 317.46527 308.073 316.77963 307.90613 316.1514 308.03018C 309.9428 309.25598 309.07953 308.55685 307.06152 302.56427C 304.1947 294.05087 302.39066 285.16882 296.7187 277.66116C 294.625 274.8899 294.6208 270.54 293.48306 266.6114z" stroke="none"  fill="#AF6267" fill-rule="nonzero" />
			<path  d="M326.48773 279.12186C 326.83838 281.03918 326.87555 283.11298 326.84454 285.62903C 326.5757 283.80698 326.375 281.54266 326.48773 279.12186z" stroke="none"  fill="#AF6267" fill-rule="nonzero" />
			<path  d="M307.20215 208.28894C 302.09305 201.31062 296.83896 194.8105 292.49808 187.74902C 289.92093 183.55664 288.7827 178.47972 286.99973 173.37787C 288.13974 171.76096 289.13602 170.37413 290.4446 169.41217C 293.2361 167.36006 295.4976 167.9748 296.56537 171.36237C 301.62125 187.40228 312.08798 200.02802 322.38943 212.79794C 323.48404 214.1548 323.48367 216.39494 323.97302 218.63554C 318.4503 215.54086 312.9458 212.03595 307.20215 208.28894z" stroke="none"  fill="#F0BB41" fill-rule="nonzero" />
			<path  d="M326.53842 213.45242C 326.7838 215.44608 326.85385 217.73402 326.96948 220.44781C 327.01505 220.87366 326.55713 221.04375 326.33514 221.14832C 325.45447 220.72797 324.7958 220.20302 324.04718 219.36508C 324.7592 217.28365 325.56113 215.51518 326.53842 213.45242z" stroke="none"  fill="#F0BB41" fill-rule="nonzero" />
			<path  d="M195.05655 199.21841C 195.05426 199.38623 194.79907 199.6266 194.28273 199.92142C 194.28226 199.74756 194.54297 199.51926 195.05655 199.21841z" stroke="none"  fill="#438DC7" fill-rule="nonzero" />
			<path  d="M196.92668 198.18243C 197.04794 198.45128 196.83086 198.68216 196.25368 198.83188C 196.19617 198.60591 196.42775 198.40385 196.92668 198.18243z" stroke="none"  fill="#438DC7" fill-rule="nonzero" />
			<path  d="M198.24414 197.30194C 198.24164 197.4909 197.94965 197.75179 197.36838 198.08414C 197.37094 197.89502 197.66278 197.63445 198.24414 197.30194z" stroke="none"  fill="#438DC7" fill-rule="nonzero" />
			<path  d="M182.02136 207.17636C 182.01933 207.33891 181.78233 207.58183 181.28531 207.854C 181.23347 207.61913 181.48717 207.4103 182.02136 207.17636z" stroke="none"  fill="#50A4D8" fill-rule="nonzero" />
			<path  d="M184.95093 205.19943C 184.96164 205.36171 184.74426 205.61455 184.27058 205.9111C 184.19682 205.67601 184.433 205.45442 184.95093 205.19943z" stroke="none"  fill="#50A4D8" fill-rule="nonzero" />
			<path  d="M318.32318 307.97293C 318.12753 307.6798 318.2959 307.42676 318.78806 307.15894C 318.86316 307.36252 318.7216 307.6521 318.32318 307.97293z" stroke="none"  fill="#89547B" fill-rule="nonzero" />
		</g>
	</g>
</g>
</svg>
